<svg width="1000" height="200" xmlns="http://www.w3.org/2000/svg">
<style>.small { font: 8px sans-serif; fill: #333; }</style>
<g transform="translate(20, 20)">
<text x="-10" y="10" class="small" text-anchor="end">Mon</text>
<text x="-10" y="36" class="small" text-anchor="end">Wed</text>
<text x="-10" y="62" class="small" text-anchor="end">Fri</text>
<text x="13" y="-5" class="small">May</text>
<text x="26" y="-5" class="small">Jun</text>
<text x="78" y="-5" class="small">Jul</text>
<text x="143" y="-5" class="small">Aug</text>
<text x="195" y="-5" class="small">Sep</text>
<text x="247" y="-5" class="small">Oct</text>
<text x="312" y="-5" class="small">Nov</text>
<text x="364" y="-5" class="small">Dec</text>
<text x="429" y="-5" class="small">Jan</text>
<text x="481" y="-5" class="small">Feb</text>
<text x="533" y="-5" class="small">Mar</text>
<text x="598" y="-5" class="small">Apr</text>
<text x="650" y="-5" class="small">May</text>
<rect x="0" y="0" width="11" height="11" fill="#ebedf0" title="2023-05-28 - 0 problems solved"/>
<rect x="0" y="13" width="11" height="11" fill="#ebedf0" title="2023-05-29 - 0 problems solved"/>
<rect x="0" y="26" width="11" height="11" fill="#ebedf0" title="2023-05-30 - 0 problems solved"/>
<rect x="0" y="39" width="11" height="11" fill="#ebedf0" title="2023-05-31 - 0 problems solved"/>
<rect x="0" y="52" width="11" height="11" fill="#ebedf0" title="2023-06-01 - 0 problems solved"/>
<rect x="0" y="65" width="11" height="11" fill="#ebedf0" title="2023-06-02 - 0 problems solved"/>
<rect x="0" y="78" width="11" height="11" fill="#ebedf0" title="2023-06-03 - 0 problems solved"/>
<rect x="13" y="0" width="11" height="11" fill="#ebedf0" title="2023-06-04 - 0 problems solved"/>
<rect x="13" y="13" width="11" height="11" fill="#ebedf0" title="2023-06-05 - 0 problems solved"/>
<rect x="13" y="26" width="11" height="11" fill="#ebedf0" title="2023-06-06 - 0 problems solved"/>
<rect x="13" y="39" width="11" height="11" fill="#ebedf0" title="2023-06-07 - 0 problems solved"/>
<rect x="13" y="52" width="11" height="11" fill="#ebedf0" title="2023-06-08 - 0 problems solved"/>
<rect x="13" y="65" width="11" height="11" fill="#ebedf0" title="2023-06-09 - 0 problems solved"/>
<rect x="13" y="78" width="11" height="11" fill="#ebedf0" title="2023-06-10 - 0 problems solved"/>
<rect x="26" y="0" width="11" height="11" fill="#ebedf0" title="2023-06-11 - 0 problems solved"/>
<rect x="26" y="13" width="11" height="11" fill="#ebedf0" title="2023-06-12 - 0 problems solved"/>
<rect x="26" y="26" width="11" height="11" fill="#ebedf0" title="2023-06-13 - 0 problems solved"/>
<rect x="26" y="39" width="11" height="11" fill="#ebedf0" title="2023-06-14 - 0 problems solved"/>
<rect x="26" y="52" width="11" height="11" fill="#ebedf0" title="2023-06-15 - 0 problems solved"/>
<rect x="26" y="65" width="11" height="11" fill="#ebedf0" title="2023-06-16 - 0 problems solved"/>
<rect x="26" y="78" width="11" height="11" fill="#ebedf0" title="2023-06-17 - 0 problems solved"/>
<rect x="39" y="0" width="11" height="11" fill="#ebedf0" title="2023-06-18 - 0 problems solved"/>
<rect x="39" y="13" width="11" height="11" fill="#ebedf0" title="2023-06-19 - 0 problems solved"/>
<rect x="39" y="26" width="11" height="11" fill="#ebedf0" title="2023-06-20 - 0 problems solved"/>
<rect x="39" y="39" width="11" height="11" fill="#ebedf0" title="2023-06-21 - 0 problems solved"/>
<rect x="39" y="52" width="11" height="11" fill="#ebedf0" title="2023-06-22 - 0 problems solved"/>
<rect x="39" y="65" width="11" height="11" fill="#ebedf0" title="2023-06-23 - 0 problems solved"/>
<rect x="39" y="78" width="11" height="11" fill="#ebedf0" title="2023-06-24 - 0 problems solved"/>
<rect x="52" y="0" width="11" height="11" fill="#ebedf0" title="2023-06-25 - 0 problems solved"/>
<rect x="52" y="13" width="11" height="11" fill="#ebedf0" title="2023-06-26 - 0 problems solved"/>
<rect x="52" y="26" width="11" height="11" fill="#ebedf0" title="2023-06-27 - 0 problems solved"/>
<rect x="52" y="39" width="11" height="11" fill="#ebedf0" title="2023-06-28 - 0 problems solved"/>
<rect x="52" y="52" width="11" height="11" fill="#ebedf0" title="2023-06-29 - 0 problems solved"/>
<rect x="52" y="65" width="11" height="11" fill="#ebedf0" title="2023-06-30 - 0 problems solved"/>
<rect x="52" y="78" width="11" height="11" fill="#ebedf0" title="2023-07-01 - 0 problems solved"/>
<rect x="65" y="0" width="11" height="11" fill="#ebedf0" title="2023-07-02 - 0 problems solved"/>
<rect x="65" y="13" width="11" height="11" fill="#ebedf0" title="2023-07-03 - 0 problems solved"/>
<rect x="65" y="26" width="11" height="11" fill="#ebedf0" title="2023-07-04 - 0 problems solved"/>
<rect x="65" y="39" width="11" height="11" fill="#ebedf0" title="2023-07-05 - 0 problems solved"/>
<rect x="65" y="52" width="11" height="11" fill="#ebedf0" title="2023-07-06 - 0 problems solved"/>
<rect x="65" y="65" width="11" height="11" fill="#ebedf0" title="2023-07-07 - 0 problems solved"/>
<rect x="65" y="78" width="11" height="11" fill="#ebedf0" title="2023-07-08 - 0 problems solved"/>
<rect x="78" y="0" width="11" height="11" fill="#ebedf0" title="2023-07-09 - 0 problems solved"/>
<rect x="78" y="13" width="11" height="11" fill="#ebedf0" title="2023-07-10 - 0 problems solved"/>
<rect x="78" y="26" width="11" height="11" fill="#ebedf0" title="2023-07-11 - 0 problems solved"/>
<rect x="78" y="39" width="11" height="11" fill="#ebedf0" title="2023-07-12 - 0 problems solved"/>
<rect x="78" y="52" width="11" height="11" fill="#ebedf0" title="2023-07-13 - 0 problems solved"/>
<rect x="78" y="65" width="11" height="11" fill="#ebedf0" title="2023-07-14 - 0 problems solved"/>
<rect x="78" y="78" width="11" height="11" fill="#ebedf0" title="2023-07-15 - 0 problems solved"/>
<rect x="91" y="0" width="11" height="11" fill="#ebedf0" title="2023-07-16 - 0 problems solved"/>
<rect x="91" y="13" width="11" height="11" fill="#ebedf0" title="2023-07-17 - 0 problems solved"/>
<rect x="91" y="26" width="11" height="11" fill="#ebedf0" title="2023-07-18 - 0 problems solved"/>
<rect x="91" y="39" width="11" height="11" fill="#ebedf0" title="2023-07-19 - 0 problems solved"/>
<rect x="91" y="52" width="11" height="11" fill="#ebedf0" title="2023-07-20 - 0 problems solved"/>
<rect x="91" y="65" width="11" height="11" fill="#ebedf0" title="2023-07-21 - 0 problems solved"/>
<rect x="91" y="78" width="11" height="11" fill="#ebedf0" title="2023-07-22 - 0 problems solved"/>
<rect x="104" y="0" width="11" height="11" fill="#ebedf0" title="2023-07-23 - 0 problems solved"/>
<rect x="104" y="13" width="11" height="11" fill="#ebedf0" title="2023-07-24 - 0 problems solved"/>
<rect x="104" y="26" width="11" height="11" fill="#ebedf0" title="2023-07-25 - 0 problems solved"/>
<rect x="104" y="39" width="11" height="11" fill="#ebedf0" title="2023-07-26 - 0 problems solved"/>
<rect x="104" y="52" width="11" height="11" fill="#ebedf0" title="2023-07-27 - 0 problems solved"/>
<rect x="104" y="65" width="11" height="11" fill="#ebedf0" title="2023-07-28 - 0 problems solved"/>
<rect x="104" y="78" width="11" height="11" fill="#ebedf0" title="2023-07-29 - 0 problems solved"/>
<rect x="117" y="0" width="11" height="11" fill="#ebedf0" title="2023-07-30 - 0 problems solved"/>
<rect x="117" y="13" width="11" height="11" fill="#ebedf0" title="2023-07-31 - 0 problems solved"/>
<rect x="117" y="26" width="11" height="11" fill="#ebedf0" title="2023-08-01 - 0 problems solved"/>
<rect x="117" y="39" width="11" height="11" fill="#ebedf0" title="2023-08-02 - 0 problems solved"/>
<rect x="117" y="52" width="11" height="11" fill="#ebedf0" title="2023-08-03 - 0 problems solved"/>
<rect x="117" y="65" width="11" height="11" fill="#ebedf0" title="2023-08-04 - 0 problems solved"/>
<rect x="117" y="78" width="11" height="11" fill="#ebedf0" title="2023-08-05 - 0 problems solved"/>
<rect x="130" y="0" width="11" height="11" fill="#ebedf0" title="2023-08-06 - 0 problems solved"/>
<rect x="130" y="13" width="11" height="11" fill="#ebedf0" title="2023-08-07 - 0 problems solved"/>
<rect x="130" y="26" width="11" height="11" fill="#ebedf0" title="2023-08-08 - 0 problems solved"/>
<rect x="130" y="39" width="11" height="11" fill="#ebedf0" title="2023-08-09 - 0 problems solved"/>
<rect x="130" y="52" width="11" height="11" fill="#ebedf0" title="2023-08-10 - 0 problems solved"/>
<rect x="130" y="65" width="11" height="11" fill="#ebedf0" title="2023-08-11 - 0 problems solved"/>
<rect x="130" y="78" width="11" height="11" fill="#ebedf0" title="2023-08-12 - 0 problems solved"/>
<rect x="143" y="0" width="11" height="11" fill="#ebedf0" title="2023-08-13 - 0 problems solved"/>
<rect x="143" y="13" width="11" height="11" fill="#ebedf0" title="2023-08-14 - 0 problems solved"/>
<rect x="143" y="26" width="11" height="11" fill="#ebedf0" title="2023-08-15 - 0 problems solved"/>
<rect x="143" y="39" width="11" height="11" fill="#ebedf0" title="2023-08-16 - 0 problems solved"/>
<rect x="143" y="52" width="11" height="11" fill="#ebedf0" title="2023-08-17 - 0 problems solved"/>
<rect x="143" y="65" width="11" height="11" fill="#ebedf0" title="2023-08-18 - 0 problems solved"/>
<rect x="143" y="78" width="11" height="11" fill="#ebedf0" title="2023-08-19 - 0 problems solved"/>
<rect x="156" y="0" width="11" height="11" fill="#ebedf0" title="2023-08-20 - 0 problems solved"/>
<rect x="156" y="13" width="11" height="11" fill="#ebedf0" title="2023-08-21 - 0 problems solved"/>
<rect x="156" y="26" width="11" height="11" fill="#ebedf0" title="2023-08-22 - 0 problems solved"/>
<rect x="156" y="39" width="11" height="11" fill="#ebedf0" title="2023-08-23 - 0 problems solved"/>
<rect x="156" y="52" width="11" height="11" fill="#ebedf0" title="2023-08-24 - 0 problems solved"/>
<rect x="156" y="65" width="11" height="11" fill="#ebedf0" title="2023-08-25 - 0 problems solved"/>
<rect x="156" y="78" width="11" height="11" fill="#ebedf0" title="2023-08-26 - 0 problems solved"/>
<rect x="169" y="0" width="11" height="11" fill="#ebedf0" title="2023-08-27 - 0 problems solved"/>
<rect x="169" y="13" width="11" height="11" fill="#ebedf0" title="2023-08-28 - 0 problems solved"/>
<rect x="169" y="26" width="11" height="11" fill="#ebedf0" title="2023-08-29 - 0 problems solved"/>
<rect x="169" y="39" width="11" height="11" fill="#ebedf0" title="2023-08-30 - 0 problems solved"/>
<rect x="169" y="52" width="11" height="11" fill="#ebedf0" title="2023-08-31 - 0 problems solved"/>
<rect x="169" y="65" width="11" height="11" fill="#ebedf0" title="2023-09-01 - 0 problems solved"/>
<rect x="169" y="78" width="11" height="11" fill="#ebedf0" title="2023-09-02 - 0 problems solved"/>
<rect x="182" y="0" width="11" height="11" fill="#ebedf0" title="2023-09-03 - 0 problems solved"/>
<rect x="182" y="13" width="11" height="11" fill="#ebedf0" title="2023-09-04 - 0 problems solved"/>
<rect x="182" y="26" width="11" height="11" fill="#ebedf0" title="2023-09-05 - 0 problems solved"/>
<rect x="182" y="39" width="11" height="11" fill="#ebedf0" title="2023-09-06 - 0 problems solved"/>
<rect x="182" y="52" width="11" height="11" fill="#ebedf0" title="2023-09-07 - 0 problems solved"/>
<rect x="182" y="65" width="11" height="11" fill="#ebedf0" title="2023-09-08 - 0 problems solved"/>
<rect x="182" y="78" width="11" height="11" fill="#ebedf0" title="2023-09-09 - 0 problems solved"/>
<rect x="195" y="0" width="11" height="11" fill="#ebedf0" title="2023-09-10 - 0 problems solved"/>
<rect x="195" y="13" width="11" height="11" fill="#ebedf0" title="2023-09-11 - 0 problems solved"/>
<rect x="195" y="26" width="11" height="11" fill="#ebedf0" title="2023-09-12 - 0 problems solved"/>
<rect x="195" y="39" width="11" height="11" fill="#ebedf0" title="2023-09-13 - 0 problems solved"/>
<rect x="195" y="52" width="11" height="11" fill="#ebedf0" title="2023-09-14 - 0 problems solved"/>
<rect x="195" y="65" width="11" height="11" fill="#ebedf0" title="2023-09-15 - 0 problems solved"/>
<rect x="195" y="78" width="11" height="11" fill="#ebedf0" title="2023-09-16 - 0 problems solved"/>
<rect x="208" y="0" width="11" height="11" fill="#ebedf0" title="2023-09-17 - 0 problems solved"/>
<rect x="208" y="13" width="11" height="11" fill="#ebedf0" title="2023-09-18 - 0 problems solved"/>
<rect x="208" y="26" width="11" height="11" fill="#ebedf0" title="2023-09-19 - 0 problems solved"/>
<rect x="208" y="39" width="11" height="11" fill="#ebedf0" title="2023-09-20 - 0 problems solved"/>
<rect x="208" y="52" width="11" height="11" fill="#ebedf0" title="2023-09-21 - 0 problems solved"/>
<rect x="208" y="65" width="11" height="11" fill="#ebedf0" title="2023-09-22 - 0 problems solved"/>
<rect x="208" y="78" width="11" height="11" fill="#ebedf0" title="2023-09-23 - 0 problems solved"/>
<rect x="221" y="0" width="11" height="11" fill="#ebedf0" title="2023-09-24 - 0 problems solved"/>
<rect x="221" y="13" width="11" height="11" fill="#ebedf0" title="2023-09-25 - 0 problems solved"/>
<rect x="221" y="26" width="11" height="11" fill="#ebedf0" title="2023-09-26 - 0 problems solved"/>
<rect x="221" y="39" width="11" height="11" fill="#ebedf0" title="2023-09-27 - 0 problems solved"/>
<rect x="221" y="52" width="11" height="11" fill="#ebedf0" title="2023-09-28 - 0 problems solved"/>
<rect x="221" y="65" width="11" height="11" fill="#ebedf0" title="2023-09-29 - 0 problems solved"/>
<rect x="221" y="78" width="11" height="11" fill="#ebedf0" title="2023-09-30 - 0 problems solved"/>
<rect x="234" y="0" width="11" height="11" fill="#ebedf0" title="2023-10-01 - 0 problems solved"/>
<rect x="234" y="13" width="11" height="11" fill="#ebedf0" title="2023-10-02 - 0 problems solved"/>
<rect x="234" y="26" width="11" height="11" fill="#ebedf0" title="2023-10-03 - 0 problems solved"/>
<rect x="234" y="39" width="11" height="11" fill="#ebedf0" title="2023-10-04 - 0 problems solved"/>
<rect x="234" y="52" width="11" height="11" fill="#ebedf0" title="2023-10-05 - 0 problems solved"/>
<rect x="234" y="65" width="11" height="11" fill="#ebedf0" title="2023-10-06 - 0 problems solved"/>
<rect x="234" y="78" width="11" height="11" fill="#ebedf0" title="2023-10-07 - 0 problems solved"/>
<rect x="247" y="0" width="11" height="11" fill="#ebedf0" title="2023-10-08 - 0 problems solved"/>
<rect x="247" y="13" width="11" height="11" fill="#ebedf0" title="2023-10-09 - 0 problems solved"/>
<rect x="247" y="26" width="11" height="11" fill="#ebedf0" title="2023-10-10 - 0 problems solved"/>
<rect x="247" y="39" width="11" height="11" fill="#ebedf0" title="2023-10-11 - 0 problems solved"/>
<rect x="247" y="52" width="11" height="11" fill="#ebedf0" title="2023-10-12 - 0 problems solved"/>
<rect x="247" y="65" width="11" height="11" fill="#ebedf0" title="2023-10-13 - 0 problems solved"/>
<rect x="247" y="78" width="11" height="11" fill="#ebedf0" title="2023-10-14 - 0 problems solved"/>
<rect x="260" y="0" width="11" height="11" fill="#ebedf0" title="2023-10-15 - 0 problems solved"/>
<rect x="260" y="13" width="11" height="11" fill="#ebedf0" title="2023-10-16 - 0 problems solved"/>
<rect x="260" y="26" width="11" height="11" fill="#ebedf0" title="2023-10-17 - 0 problems solved"/>
<rect x="260" y="39" width="11" height="11" fill="#ebedf0" title="2023-10-18 - 0 problems solved"/>
<rect x="260" y="52" width="11" height="11" fill="#ebedf0" title="2023-10-19 - 0 problems solved"/>
<rect x="260" y="65" width="11" height="11" fill="#ebedf0" title="2023-10-20 - 0 problems solved"/>
<rect x="260" y="78" width="11" height="11" fill="#ebedf0" title="2023-10-21 - 0 problems solved"/>
<rect x="273" y="0" width="11" height="11" fill="#ebedf0" title="2023-10-22 - 0 problems solved"/>
<rect x="273" y="13" width="11" height="11" fill="#ebedf0" title="2023-10-23 - 0 problems solved"/>
<rect x="273" y="26" width="11" height="11" fill="#ebedf0" title="2023-10-24 - 0 problems solved"/>
<rect x="273" y="39" width="11" height="11" fill="#ebedf0" title="2023-10-25 - 0 problems solved"/>
<rect x="273" y="52" width="11" height="11" fill="#ebedf0" title="2023-10-26 - 0 problems solved"/>
<rect x="273" y="65" width="11" height="11" fill="#ebedf0" title="2023-10-27 - 0 problems solved"/>
<rect x="273" y="78" width="11" height="11" fill="#ebedf0" title="2023-10-28 - 0 problems solved"/>
<rect x="286" y="0" width="11" height="11" fill="#ebedf0" title="2023-10-29 - 0 problems solved"/>
<rect x="286" y="13" width="11" height="11" fill="#ebedf0" title="2023-10-30 - 0 problems solved"/>
<rect x="286" y="26" width="11" height="11" fill="#ebedf0" title="2023-10-31 - 0 problems solved"/>
<rect x="286" y="39" width="11" height="11" fill="#ebedf0" title="2023-11-01 - 0 problems solved"/>
<rect x="286" y="52" width="11" height="11" fill="#ebedf0" title="2023-11-02 - 0 problems solved"/>
<rect x="286" y="65" width="11" height="11" fill="#ebedf0" title="2023-11-03 - 0 problems solved"/>
<rect x="286" y="78" width="11" height="11" fill="#ebedf0" title="2023-11-04 - 0 problems solved"/>
<rect x="299" y="0" width="11" height="11" fill="#ebedf0" title="2023-11-05 - 0 problems solved"/>
<rect x="299" y="13" width="11" height="11" fill="#ebedf0" title="2023-11-06 - 0 problems solved"/>
<rect x="299" y="26" width="11" height="11" fill="#ebedf0" title="2023-11-07 - 0 problems solved"/>
<rect x="299" y="39" width="11" height="11" fill="#ebedf0" title="2023-11-08 - 0 problems solved"/>
<rect x="299" y="52" width="11" height="11" fill="#ebedf0" title="2023-11-09 - 0 problems solved"/>
<rect x="299" y="65" width="11" height="11" fill="#ebedf0" title="2023-11-10 - 0 problems solved"/>
<rect x="299" y="78" width="11" height="11" fill="#ebedf0" title="2023-11-11 - 0 problems solved"/>
<rect x="312" y="0" width="11" height="11" fill="#ebedf0" title="2023-11-12 - 0 problems solved"/>
<rect x="312" y="13" width="11" height="11" fill="#ebedf0" title="2023-11-13 - 0 problems solved"/>
<rect x="312" y="26" width="11" height="11" fill="#ebedf0" title="2023-11-14 - 0 problems solved"/>
<rect x="312" y="39" width="11" height="11" fill="#ebedf0" title="2023-11-15 - 0 problems solved"/>
<rect x="312" y="52" width="11" height="11" fill="#ebedf0" title="2023-11-16 - 0 problems solved"/>
<rect x="312" y="65" width="11" height="11" fill="#ebedf0" title="2023-11-17 - 0 problems solved"/>
<rect x="312" y="78" width="11" height="11" fill="#ebedf0" title="2023-11-18 - 0 problems solved"/>
<rect x="325" y="0" width="11" height="11" fill="#ebedf0" title="2023-11-19 - 0 problems solved"/>
<rect x="325" y="13" width="11" height="11" fill="#ebedf0" title="2023-11-20 - 0 problems solved"/>
<rect x="325" y="26" width="11" height="11" fill="#ebedf0" title="2023-11-21 - 0 problems solved"/>
<rect x="325" y="39" width="11" height="11" fill="#ebedf0" title="2023-11-22 - 0 problems solved"/>
<rect x="325" y="52" width="11" height="11" fill="#ebedf0" title="2023-11-23 - 0 problems solved"/>
<rect x="325" y="65" width="11" height="11" fill="#ebedf0" title="2023-11-24 - 0 problems solved"/>
<rect x="325" y="78" width="11" height="11" fill="#ebedf0" title="2023-11-25 - 0 problems solved"/>
<rect x="338" y="0" width="11" height="11" fill="#ebedf0" title="2023-11-26 - 0 problems solved"/>
<rect x="338" y="13" width="11" height="11" fill="#ebedf0" title="2023-11-27 - 0 problems solved"/>
<rect x="338" y="26" width="11" height="11" fill="#ebedf0" title="2023-11-28 - 0 problems solved"/>
<rect x="338" y="39" width="11" height="11" fill="#ebedf0" title="2023-11-29 - 0 problems solved"/>
<rect x="338" y="52" width="11" height="11" fill="#ebedf0" title="2023-11-30 - 0 problems solved"/>
<rect x="338" y="65" width="11" height="11" fill="#ebedf0" title="2023-12-01 - 0 problems solved"/>
<rect x="338" y="78" width="11" height="11" fill="#ebedf0" title="2023-12-02 - 0 problems solved"/>
<rect x="351" y="0" width="11" height="11" fill="#ebedf0" title="2023-12-03 - 0 problems solved"/>
<rect x="351" y="13" width="11" height="11" fill="#ebedf0" title="2023-12-04 - 0 problems solved"/>
<rect x="351" y="26" width="11" height="11" fill="#ebedf0" title="2023-12-05 - 0 problems solved"/>
<rect x="351" y="39" width="11" height="11" fill="#ebedf0" title="2023-12-06 - 0 problems solved"/>
<rect x="351" y="52" width="11" height="11" fill="#ebedf0" title="2023-12-07 - 0 problems solved"/>
<rect x="351" y="65" width="11" height="11" fill="#ebedf0" title="2023-12-08 - 0 problems solved"/>
<rect x="351" y="78" width="11" height="11" fill="#ebedf0" title="2023-12-09 - 0 problems solved"/>
<rect x="364" y="0" width="11" height="11" fill="#ebedf0" title="2023-12-10 - 0 problems solved"/>
<rect x="364" y="13" width="11" height="11" fill="#ebedf0" title="2023-12-11 - 0 problems solved"/>
<rect x="364" y="26" width="11" height="11" fill="#ebedf0" title="2023-12-12 - 0 problems solved"/>
<rect x="364" y="39" width="11" height="11" fill="#ebedf0" title="2023-12-13 - 0 problems solved"/>
<rect x="364" y="52" width="11" height="11" fill="#ebedf0" title="2023-12-14 - 0 problems solved"/>
<rect x="364" y="65" width="11" height="11" fill="#ebedf0" title="2023-12-15 - 0 problems solved"/>
<rect x="364" y="78" width="11" height="11" fill="#ebedf0" title="2023-12-16 - 0 problems solved"/>
<rect x="377" y="0" width="11" height="11" fill="#ebedf0" title="2023-12-17 - 0 problems solved"/>
<rect x="377" y="13" width="11" height="11" fill="#ebedf0" title="2023-12-18 - 0 problems solved"/>
<rect x="377" y="26" width="11" height="11" fill="#ebedf0" title="2023-12-19 - 0 problems solved"/>
<rect x="377" y="39" width="11" height="11" fill="#ebedf0" title="2023-12-20 - 0 problems solved"/>
<rect x="377" y="52" width="11" height="11" fill="#ebedf0" title="2023-12-21 - 0 problems solved"/>
<rect x="377" y="65" width="11" height="11" fill="#ebedf0" title="2023-12-22 - 0 problems solved"/>
<rect x="377" y="78" width="11" height="11" fill="#ebedf0" title="2023-12-23 - 0 problems solved"/>
<rect x="390" y="0" width="11" height="11" fill="#ebedf0" title="2023-12-24 - 0 problems solved"/>
<rect x="390" y="13" width="11" height="11" fill="#ebedf0" title="2023-12-25 - 0 problems solved"/>
<rect x="390" y="26" width="11" height="11" fill="#ebedf0" title="2023-12-26 - 0 problems solved"/>
<rect x="390" y="39" width="11" height="11" fill="#ebedf0" title="2023-12-27 - 0 problems solved"/>
<rect x="390" y="52" width="11" height="11" fill="#ebedf0" title="2023-12-28 - 0 problems solved"/>
<rect x="390" y="65" width="11" height="11" fill="#ebedf0" title="2023-12-29 - 0 problems solved"/>
<rect x="390" y="78" width="11" height="11" fill="#ebedf0" title="2023-12-30 - 0 problems solved"/>
<rect x="403" y="0" width="11" height="11" fill="#ebedf0" title="2023-12-31 - 0 problems solved"/>
<rect x="403" y="13" width="11" height="11" fill="#ebedf0" title="2024-01-01 - 0 problems solved"/>
<rect x="403" y="26" width="11" height="11" fill="#ebedf0" title="2024-01-02 - 0 problems solved"/>
<rect x="403" y="39" width="11" height="11" fill="#ebedf0" title="2024-01-03 - 0 problems solved"/>
<rect x="403" y="52" width="11" height="11" fill="#ebedf0" title="2024-01-04 - 0 problems solved"/>
<rect x="403" y="65" width="11" height="11" fill="#ebedf0" title="2024-01-05 - 0 problems solved"/>
<rect x="403" y="78" width="11" height="11" fill="#ebedf0" title="2024-01-06 - 0 problems solved"/>
<rect x="416" y="0" width="11" height="11" fill="#ebedf0" title="2024-01-07 - 0 problems solved"/>
<rect x="416" y="13" width="11" height="11" fill="#ebedf0" title="2024-01-08 - 0 problems solved"/>
<rect x="416" y="26" width="11" height="11" fill="#ebedf0" title="2024-01-09 - 0 problems solved"/>
<rect x="416" y="39" width="11" height="11" fill="#ebedf0" title="2024-01-10 - 0 problems solved"/>
<rect x="416" y="52" width="11" height="11" fill="#ebedf0" title="2024-01-11 - 0 problems solved"/>
<rect x="416" y="65" width="11" height="11" fill="#ebedf0" title="2024-01-12 - 0 problems solved"/>
<rect x="416" y="78" width="11" height="11" fill="#ebedf0" title="2024-01-13 - 0 problems solved"/>
<rect x="429" y="0" width="11" height="11" fill="#ebedf0" title="2024-01-14 - 0 problems solved"/>
<rect x="429" y="13" width="11" height="11" fill="#ebedf0" title="2024-01-15 - 0 problems solved"/>
<rect x="429" y="26" width="11" height="11" fill="#ebedf0" title="2024-01-16 - 0 problems solved"/>
<rect x="429" y="39" width="11" height="11" fill="#ebedf0" title="2024-01-17 - 0 problems solved"/>
<rect x="429" y="52" width="11" height="11" fill="#ebedf0" title="2024-01-18 - 0 problems solved"/>
<rect x="429" y="65" width="11" height="11" fill="#ebedf0" title="2024-01-19 - 0 problems solved"/>
<rect x="429" y="78" width="11" height="11" fill="#ebedf0" title="2024-01-20 - 0 problems solved"/>
<rect x="442" y="0" width="11" height="11" fill="#ebedf0" title="2024-01-21 - 0 problems solved"/>
<rect x="442" y="13" width="11" height="11" fill="#ebedf0" title="2024-01-22 - 0 problems solved"/>
<rect x="442" y="26" width="11" height="11" fill="#ebedf0" title="2024-01-23 - 0 problems solved"/>
<rect x="442" y="39" width="11" height="11" fill="#ebedf0" title="2024-01-24 - 0 problems solved"/>
<rect x="442" y="52" width="11" height="11" fill="#ebedf0" title="2024-01-25 - 0 problems solved"/>
<rect x="442" y="65" width="11" height="11" fill="#ebedf0" title="2024-01-26 - 0 problems solved"/>
<rect x="442" y="78" width="11" height="11" fill="#ebedf0" title="2024-01-27 - 0 problems solved"/>
<rect x="455" y="0" width="11" height="11" fill="#ebedf0" title="2024-01-28 - 0 problems solved"/>
<rect x="455" y="13" width="11" height="11" fill="#ebedf0" title="2024-01-29 - 0 problems solved"/>
<rect x="455" y="26" width="11" height="11" fill="#ebedf0" title="2024-01-30 - 0 problems solved"/>
<rect x="455" y="39" width="11" height="11" fill="#ebedf0" title="2024-01-31 - 0 problems solved"/>
<rect x="455" y="52" width="11" height="11" fill="#ebedf0" title="2024-02-01 - 0 problems solved"/>
<rect x="455" y="65" width="11" height="11" fill="#ebedf0" title="2024-02-02 - 0 problems solved"/>
<rect x="455" y="78" width="11" height="11" fill="#ebedf0" title="2024-02-03 - 0 problems solved"/>
<rect x="468" y="0" width="11" height="11" fill="#ebedf0" title="2024-02-04 - 0 problems solved"/>
<rect x="468" y="13" width="11" height="11" fill="#ebedf0" title="2024-02-05 - 0 problems solved"/>
<rect x="468" y="26" width="11" height="11" fill="#ebedf0" title="2024-02-06 - 0 problems solved"/>
<rect x="468" y="39" width="11" height="11" fill="#ebedf0" title="2024-02-07 - 0 problems solved"/>
<rect x="468" y="52" width="11" height="11" fill="#ebedf0" title="2024-02-08 - 0 problems solved"/>
<rect x="468" y="65" width="11" height="11" fill="#ebedf0" title="2024-02-09 - 0 problems solved"/>
<rect x="468" y="78" width="11" height="11" fill="#ebedf0" title="2024-02-10 - 0 problems solved"/>
<rect x="481" y="0" width="11" height="11" fill="#ebedf0" title="2024-02-11 - 0 problems solved"/>
<rect x="481" y="13" width="11" height="11" fill="#ebedf0" title="2024-02-12 - 0 problems solved"/>
<rect x="481" y="26" width="11" height="11" fill="#ebedf0" title="2024-02-13 - 0 problems solved"/>
<rect x="481" y="39" width="11" height="11" fill="#ebedf0" title="2024-02-14 - 0 problems solved"/>
<rect x="481" y="52" width="11" height="11" fill="#ebedf0" title="2024-02-15 - 0 problems solved"/>
<rect x="481" y="65" width="11" height="11" fill="#ebedf0" title="2024-02-16 - 0 problems solved"/>
<rect x="481" y="78" width="11" height="11" fill="#ebedf0" title="2024-02-17 - 0 problems solved"/>
<rect x="494" y="0" width="11" height="11" fill="#ebedf0" title="2024-02-18 - 0 problems solved"/>
<rect x="494" y="13" width="11" height="11" fill="#ebedf0" title="2024-02-19 - 0 problems solved"/>
<rect x="494" y="26" width="11" height="11" fill="#ebedf0" title="2024-02-20 - 0 problems solved"/>
<rect x="494" y="39" width="11" height="11" fill="#ebedf0" title="2024-02-21 - 0 problems solved"/>
<rect x="494" y="52" width="11" height="11" fill="#ebedf0" title="2024-02-22 - 0 problems solved"/>
<rect x="494" y="65" width="11" height="11" fill="#ebedf0" title="2024-02-23 - 0 problems solved"/>
<rect x="494" y="78" width="11" height="11" fill="#ebedf0" title="2024-02-24 - 0 problems solved"/>
<rect x="507" y="0" width="11" height="11" fill="#ebedf0" title="2024-02-25 - 0 problems solved"/>
<rect x="507" y="13" width="11" height="11" fill="#ebedf0" title="2024-02-26 - 0 problems solved"/>
<rect x="507" y="26" width="11" height="11" fill="#ebedf0" title="2024-02-27 - 0 problems solved"/>
<rect x="507" y="39" width="11" height="11" fill="#ebedf0" title="2024-02-28 - 0 problems solved"/>
<rect x="507" y="52" width="11" height="11" fill="#ebedf0" title="2024-02-29 - 0 problems solved"/>
<rect x="507" y="65" width="11" height="11" fill="#ebedf0" title="2024-03-01 - 0 problems solved"/>
<rect x="507" y="78" width="11" height="11" fill="#ebedf0" title="2024-03-02 - 0 problems solved"/>
<rect x="520" y="0" width="11" height="11" fill="#ebedf0" title="2024-03-03 - 0 problems solved"/>
<rect x="520" y="13" width="11" height="11" fill="#ebedf0" title="2024-03-04 - 0 problems solved"/>
<rect x="520" y="26" width="11" height="11" fill="#ebedf0" title="2024-03-05 - 0 problems solved"/>
<rect x="520" y="39" width="11" height="11" fill="#ebedf0" title="2024-03-06 - 0 problems solved"/>
<rect x="520" y="52" width="11" height="11" fill="#ebedf0" title="2024-03-07 - 0 problems solved"/>
<rect x="520" y="65" width="11" height="11" fill="#ebedf0" title="2024-03-08 - 0 problems solved"/>
<rect x="520" y="78" width="11" height="11" fill="#ebedf0" title="2024-03-09 - 0 problems solved"/>
<rect x="533" y="0" width="11" height="11" fill="#ebedf0" title="2024-03-10 - 0 problems solved"/>
<rect x="533" y="13" width="11" height="11" fill="#ebedf0" title="2024-03-11 - 0 problems solved"/>
<rect x="533" y="26" width="11" height="11" fill="#ebedf0" title="2024-03-12 - 0 problems solved"/>
<rect x="533" y="39" width="11" height="11" fill="#ebedf0" title="2024-03-13 - 0 problems solved"/>
<rect x="533" y="52" width="11" height="11" fill="#ebedf0" title="2024-03-14 - 0 problems solved"/>
<rect x="533" y="65" width="11" height="11" fill="#ebedf0" title="2024-03-15 - 0 problems solved"/>
<rect x="533" y="78" width="11" height="11" fill="#ebedf0" title="2024-03-16 - 0 problems solved"/>
<rect x="546" y="0" width="11" height="11" fill="#ebedf0" title="2024-03-17 - 0 problems solved"/>
<rect x="546" y="13" width="11" height="11" fill="#ebedf0" title="2024-03-18 - 0 problems solved"/>
<rect x="546" y="26" width="11" height="11" fill="#ebedf0" title="2024-03-19 - 0 problems solved"/>
<rect x="546" y="39" width="11" height="11" fill="#ebedf0" title="2024-03-20 - 0 problems solved"/>
<rect x="546" y="52" width="11" height="11" fill="#ebedf0" title="2024-03-21 - 0 problems solved"/>
<rect x="546" y="65" width="11" height="11" fill="#ebedf0" title="2024-03-22 - 0 problems solved"/>
<rect x="546" y="78" width="11" height="11" fill="#ebedf0" title="2024-03-23 - 0 problems solved"/>
<rect x="559" y="0" width="11" height="11" fill="#ebedf0" title="2024-03-24 - 0 problems solved"/>
<rect x="559" y="13" width="11" height="11" fill="#ebedf0" title="2024-03-25 - 0 problems solved"/>
<rect x="559" y="26" width="11" height="11" fill="#ebedf0" title="2024-03-26 - 0 problems solved"/>
<rect x="559" y="39" width="11" height="11" fill="#ebedf0" title="2024-03-27 - 0 problems solved"/>
<rect x="559" y="52" width="11" height="11" fill="#ebedf0" title="2024-03-28 - 0 problems solved"/>
<rect x="559" y="65" width="11" height="11" fill="#ebedf0" title="2024-03-29 - 0 problems solved"/>
<rect x="559" y="78" width="11" height="11" fill="#ebedf0" title="2024-03-30 - 0 problems solved"/>
<rect x="572" y="0" width="11" height="11" fill="#ebedf0" title="2024-03-31 - 0 problems solved"/>
<rect x="572" y="13" width="11" height="11" fill="#ebedf0" title="2024-04-01 - 0 problems solved"/>
<rect x="572" y="26" width="11" height="11" fill="#ebedf0" title="2024-04-02 - 0 problems solved"/>
<rect x="572" y="39" width="11" height="11" fill="#ebedf0" title="2024-04-03 - 0 problems solved"/>
<rect x="572" y="52" width="11" height="11" fill="#ebedf0" title="2024-04-04 - 0 problems solved"/>
<rect x="572" y="65" width="11" height="11" fill="#ebedf0" title="2024-04-05 - 0 problems solved"/>
<rect x="572" y="78" width="11" height="11" fill="#ebedf0" title="2024-04-06 - 0 problems solved"/>
<rect x="585" y="0" width="11" height="11" fill="#ebedf0" title="2024-04-07 - 0 problems solved"/>
<rect x="585" y="13" width="11" height="11" fill="#ebedf0" title="2024-04-08 - 0 problems solved"/>
<rect x="585" y="26" width="11" height="11" fill="#ebedf0" title="2024-04-09 - 0 problems solved"/>
<rect x="585" y="39" width="11" height="11" fill="#ebedf0" title="2024-04-10 - 0 problems solved"/>
<rect x="585" y="52" width="11" height="11" fill="#ebedf0" title="2024-04-11 - 0 problems solved"/>
<rect x="585" y="65" width="11" height="11" fill="#ebedf0" title="2024-04-12 - 0 problems solved"/>
<rect x="585" y="78" width="11" height="11" fill="#ebedf0" title="2024-04-13 - 0 problems solved"/>
<rect x="598" y="0" width="11" height="11" fill="#ebedf0" title="2024-04-14 - 0 problems solved"/>
<rect x="598" y="13" width="11" height="11" fill="#ebedf0" title="2024-04-15 - 0 problems solved"/>
<rect x="598" y="26" width="11" height="11" fill="#ebedf0" title="2024-04-16 - 0 problems solved"/>
<rect x="598" y="39" width="11" height="11" fill="#ebedf0" title="2024-04-17 - 0 problems solved"/>
<rect x="598" y="52" width="11" height="11" fill="#ebedf0" title="2024-04-18 - 0 problems solved"/>
<rect x="598" y="65" width="11" height="11" fill="#ebedf0" title="2024-04-19 - 0 problems solved"/>
<rect x="598" y="78" width="11" height="11" fill="#ebedf0" title="2024-04-20 - 0 problems solved"/>
<rect x="611" y="0" width="11" height="11" fill="#ebedf0" title="2024-04-21 - 0 problems solved"/>
<rect x="611" y="13" width="11" height="11" fill="#ebedf0" title="2024-04-22 - 0 problems solved"/>
<rect x="611" y="26" width="11" height="11" fill="#ebedf0" title="2024-04-23 - 0 problems solved"/>
<rect x="611" y="39" width="11" height="11" fill="#ebedf0" title="2024-04-24 - 0 problems solved"/>
<rect x="611" y="52" width="11" height="11" fill="#ebedf0" title="2024-04-25 - 0 problems solved"/>
<rect x="611" y="65" width="11" height="11" fill="#ebedf0" title="2024-04-26 - 0 problems solved"/>
<rect x="611" y="78" width="11" height="11" fill="#ebedf0" title="2024-04-27 - 0 problems solved"/>
<rect x="624" y="0" width="11" height="11" fill="#ebedf0" title="2024-04-28 - 0 problems solved"/>
<rect x="624" y="13" width="11" height="11" fill="#ebedf0" title="2024-04-29 - 0 problems solved"/>
<rect x="624" y="26" width="11" height="11" fill="#ebedf0" title="2024-04-30 - 0 problems solved"/>
<rect x="624" y="39" width="11" height="11" fill="#ebedf0" title="2024-05-01 - 0 problems solved"/>
<rect x="624" y="52" width="11" height="11" fill="#ebedf0" title="2024-05-02 - 0 problems solved"/>
<rect x="624" y="65" width="11" height="11" fill="#ebedf0" title="2024-05-03 - 0 problems solved"/>
<rect x="624" y="78" width="11" height="11" fill="#ebedf0" title="2024-05-04 - 0 problems solved"/>
<rect x="637" y="0" width="11" height="11" fill="#ebedf0" title="2024-05-05 - 0 problems solved"/>
<rect x="637" y="13" width="11" height="11" fill="#ebedf0" title="2024-05-06 - 0 problems solved"/>
<rect x="637" y="26" width="11" height="11" fill="#ebedf0" title="2024-05-07 - 0 problems solved"/>
<rect x="637" y="39" width="11" height="11" fill="#ebedf0" title="2024-05-08 - 0 problems solved"/>
<rect x="637" y="52" width="11" height="11" fill="#ebedf0" title="2024-05-09 - 0 problems solved"/>
<rect x="637" y="65" width="11" height="11" fill="#ebedf0" title="2024-05-10 - 0 problems solved"/>
<rect x="637" y="78" width="11" height="11" fill="#ebedf0" title="2024-05-11 - 0 problems solved"/>
<rect x="650" y="0" width="11" height="11" fill="#ebedf0" title="2024-05-12 - 0 problems solved"/>
<rect x="650" y="13" width="11" height="11" fill="#ebedf0" title="2024-05-13 - 0 problems solved"/>
<rect x="650" y="26" width="11" height="11" fill="#ebedf0" title="2024-05-14 - 0 problems solved"/>
<rect x="650" y="39" width="11" height="11" fill="#ebedf0" title="2024-05-15 - 0 problems solved"/>
<rect x="650" y="52" width="11" height="11" fill="#ebedf0" title="2024-05-16 - 0 problems solved"/>
<rect x="650" y="65" width="11" height="11" fill="#ebedf0" title="2024-05-17 - 0 problems solved"/>
<rect x="650" y="78" width="11" height="11" fill="#ebedf0" title="2024-05-18 - 0 problems solved"/>
<rect x="663" y="0" width="11" height="11" fill="#ebedf0" title="2024-05-19 - 0 problems solved"/>
<rect x="663" y="13" width="11" height="11" fill="#ebedf0" title="2024-05-20 - 0 problems solved"/>
<rect x="663" y="26" width="11" height="11" fill="#ebedf0" title="2024-05-21 - 0 problems solved"/>
<rect x="663" y="39" width="11" height="11" fill="#ebedf0" title="2024-05-22 - 0 problems solved"/>
<rect x="663" y="52" width="11" height="11" fill="#ebedf0" title="2024-05-23 - 0 problems solved"/>
<rect x="663" y="65" width="11" height="11" fill="#ebedf0" title="2024-05-24 - 0 problems solved"/>
<rect x="663" y="78" width="11" height="11" fill="#ebedf0" title="2024-05-25 - 0 problems solved"/>
<rect x="676" y="0" width="11" height="11" fill="#ebedf0" title="2024-05-26 - 0 problems solved"/>
</g>
<g transform="translate(729, 20)">
<text class="small" y="-5">Activity Legend</text>
<rect x="0" y="0" width="11" height="11" fill="#ebedf0"/>
<text x="20" y="10" class="small">0 problems</text>
<rect x="0" y="15" width="11" height="11" fill="#c6e48b"/>
<text x="20" y="25" class="small">1 problems</text>
<rect x="0" y="30" width="11" height="11" fill="#7bc96f"/>
<text x="20" y="40" class="small">2 problems</text>
<rect x="0" y="45" width="11" height="11" fill="#239a3b"/>
<text x="20" y="55" class="small">3 problems</text>
<rect x="0" y="60" width="11" height="11" fill="#196127"/>
<text x="20" y="70" class="small">4 problems</text>
</g>
</svg>