<svg width="900" height="140" viewBox="0 0 900 140" xmlns="http://www.w3.org/2000/svg">
<style>.small { font: 8px sans-serif; fill: #7A7A7A; }</style>
<rect width="100%" height="100%" fill="white" />
<g transform="translate(20, 15)">
<text class="small" x="-10" y="8" text-anchor="middle">Sat</text>
<text class="small" x="-10" y="21" text-anchor="middle">Sun</text>
<text class="small" x="-10" y="34" text-anchor="middle">Mon</text>
<text class="small" x="-10" y="47" text-anchor="middle">Tue</text>
<text class="small" x="-10" y="60" text-anchor="middle">Wed</text>
<text class="small" x="-10" y="73" text-anchor="middle">Thu</text>
<text class="small" x="-10" y="86" text-anchor="middle">Fri</text>
<g transform="translate(0, -10)">
<text class="small" x="26" y="5">Nov</text>
<text class="small" x="78" y="5">Dec</text>
<text class="small" x="143" y="5">Jan</text>
<text class="small" x="195" y="5">Feb</text>
<text class="small" x="247" y="5">Mar</text>
<text class="small" x="312" y="5">Apr</text>
<text class="small" x="364" y="5">May</text>
<text class="small" x="429" y="5">Jun</text>
<text class="small" x="481" y="5">Jul</text>
<text class="small" x="533" y="5">Aug</text>
<text class="small" x="598" y="5">Sep</text>
<text class="small" x="650" y="5">Oct</text>
</g>
<rect x="0" y="0" width="11" height="11" fill="#ebedf0" />
<rect x="0" y="13" width="11" height="11" fill="#ebedf0" />
<rect x="0" y="26" width="11" height="11" fill="#ebedf0" />
<rect x="0" y="39" width="11" height="11" fill="#ebedf0" />
<rect x="0" y="52" width="11" height="11" fill="#ebedf0" />
<rect x="0" y="65" width="11" height="11" fill="#ebedf0" />
<rect x="0" y="78" width="11" height="11" fill="#ebedf0" />
<rect x="13" y="0" width="11" height="11" fill="#ebedf0" />
<rect x="13" y="13" width="11" height="11" fill="#ebedf0" />
<rect x="13" y="26" width="11" height="11" fill="#ebedf0" />
<rect x="13" y="39" width="11" height="11" fill="#ebedf0" />
<rect x="13" y="52" width="11" height="11" fill="#ebedf0" />
<rect x="13" y="65" width="11" height="11" fill="#ebedf0" />
<rect x="13" y="78" width="11" height="11" fill="#ebedf0" />
<rect x="26" y="0" width="11" height="11" fill="#ebedf0" />
<rect x="26" y="13" width="11" height="11" fill="#ebedf0" />
<rect x="26" y="26" width="11" height="11" fill="#ebedf0" />
<rect x="26" y="39" width="11" height="11" fill="#ebedf0" />
<rect x="26" y="52" width="11" height="11" fill="#ebedf0" />
<rect x="26" y="65" width="11" height="11" fill="#ebedf0" />
<rect x="26" y="78" width="11" height="11" fill="#ebedf0" />
<rect x="39" y="0" width="11" height="11" fill="#ebedf0" />
<rect x="39" y="13" width="11" height="11" fill="#ebedf0" />
<rect x="39" y="26" width="11" height="11" fill="#ebedf0" />
<rect x="39" y="39" width="11" height="11" fill="#ebedf0" />
<rect x="39" y="52" width="11" height="11" fill="#ebedf0" />
<rect x="39" y="65" width="11" height="11" fill="#ebedf0" />
<rect x="39" y="78" width="11" height="11" fill="#ebedf0" />
<rect x="52" y="0" width="11" height="11" fill="#ebedf0" />
<rect x="52" y="13" width="11" height="11" fill="#ebedf0" />
<rect x="52" y="26" width="11" height="11" fill="#ebedf0" />
<rect x="52" y="39" width="11" height="11" fill="#ebedf0" />
<rect x="52" y="52" width="11" height="11" fill="#ebedf0" />
<rect x="52" y="65" width="11" height="11" fill="#ebedf0" />
<rect x="52" y="78" width="11" height="11" fill="#ebedf0" />
<rect x="65" y="0" width="11" height="11" fill="#ebedf0" />
<rect x="65" y="13" width="11" height="11" fill="#ebedf0" />
<rect x="65" y="26" width="11" height="11" fill="#ebedf0" />
<rect x="65" y="39" width="11" height="11" fill="#ebedf0" />
<rect x="65" y="52" width="11" height="11" fill="#ebedf0" />
<rect x="65" y="65" width="11" height="11" fill="#ebedf0" />
<rect x="65" y="78" width="11" height="11" fill="#ebedf0" />
<rect x="78" y="0" width="11" height="11" fill="#ebedf0" />
<rect x="78" y="13" width="11" height="11" fill="#ebedf0" />
<rect x="78" y="26" width="11" height="11" fill="#ebedf0" />
<rect x="78" y="39" width="11" height="11" fill="#ebedf0" />
<rect x="78" y="52" width="11" height="11" fill="#ebedf0" />
<rect x="78" y="65" width="11" height="11" fill="#ebedf0" />
<rect x="78" y="78" width="11" height="11" fill="#ebedf0" />
<rect x="91" y="0" width="11" height="11" fill="#ebedf0" />
<rect x="91" y="13" width="11" height="11" fill="#ebedf0" />
<rect x="91" y="26" width="11" height="11" fill="#ebedf0" />
<rect x="91" y="39" width="11" height="11" fill="#ebedf0" />
<rect x="91" y="52" width="11" height="11" fill="#ebedf0" />
<rect x="91" y="65" width="11" height="11" fill="#ebedf0" />
<rect x="91" y="78" width="11" height="11" fill="#ebedf0" />
<rect x="104" y="0" width="11" height="11" fill="#ebedf0" />
<rect x="104" y="13" width="11" height="11" fill="#ebedf0" />
<rect x="104" y="26" width="11" height="11" fill="#ebedf0" />
<rect x="104" y="39" width="11" height="11" fill="#ebedf0" />
<rect x="104" y="52" width="11" height="11" fill="#ebedf0" />
<rect x="104" y="65" width="11" height="11" fill="#ebedf0" />
<rect x="104" y="78" width="11" height="11" fill="#ebedf0" />
<rect x="117" y="0" width="11" height="11" fill="#ebedf0" />
<rect x="117" y="13" width="11" height="11" fill="#ebedf0" />
<rect x="117" y="26" width="11" height="11" fill="#ebedf0" />
<rect x="117" y="39" width="11" height="11" fill="#ebedf0" />
<rect x="117" y="52" width="11" height="11" fill="#ebedf0" />
<rect x="117" y="65" width="11" height="11" fill="#ebedf0" />
<rect x="117" y="78" width="11" height="11" fill="#ebedf0" />
<rect x="130" y="0" width="11" height="11" fill="#ebedf0" />
<rect x="130" y="13" width="11" height="11" fill="#ebedf0" />
<rect x="130" y="26" width="11" height="11" fill="#ebedf0" />
<rect x="130" y="39" width="11" height="11" fill="#ebedf0" />
<rect x="130" y="52" width="11" height="11" fill="#ebedf0" />
<rect x="130" y="65" width="11" height="11" fill="#ebedf0" />
<rect x="130" y="78" width="11" height="11" fill="#ebedf0" />
<rect x="143" y="0" width="11" height="11" fill="#ebedf0" />
<rect x="143" y="13" width="11" height="11" fill="#ebedf0" />
<rect x="143" y="26" width="11" height="11" fill="#ebedf0" />
<rect x="143" y="39" width="11" height="11" fill="#ebedf0" />
<rect x="143" y="52" width="11" height="11" fill="#ebedf0" />
<rect x="143" y="65" width="11" height="11" fill="#ebedf0" />
<rect x="143" y="78" width="11" height="11" fill="#ebedf0" />
<rect x="156" y="0" width="11" height="11" fill="#ebedf0" />
<rect x="156" y="13" width="11" height="11" fill="#ebedf0" />
<rect x="156" y="26" width="11" height="11" fill="#ebedf0" />
<rect x="156" y="39" width="11" height="11" fill="#ebedf0" />
<rect x="156" y="52" width="11" height="11" fill="#ebedf0" />
<rect x="156" y="65" width="11" height="11" fill="#ebedf0" />
<rect x="156" y="78" width="11" height="11" fill="#ebedf0" />
<rect x="169" y="0" width="11" height="11" fill="#ebedf0" />
<rect x="169" y="13" width="11" height="11" fill="#ebedf0" />
<rect x="169" y="26" width="11" height="11" fill="#ebedf0" />
<rect x="169" y="39" width="11" height="11" fill="#ebedf0" />
<rect x="169" y="52" width="11" height="11" fill="#ebedf0" />
<rect x="169" y="65" width="11" height="11" fill="#ebedf0" />
<rect x="169" y="78" width="11" height="11" fill="#ebedf0" />
<rect x="182" y="0" width="11" height="11" fill="#ebedf0" />
<rect x="182" y="13" width="11" height="11" fill="#ebedf0" />
<rect x="182" y="26" width="11" height="11" fill="#ebedf0" />
<rect x="182" y="39" width="11" height="11" fill="#c6e48b" />
<rect x="182" y="52" width="11" height="11" fill="#ebedf0" />
<rect x="182" y="65" width="11" height="11" fill="#ebedf0" />
<rect x="182" y="78" width="11" height="11" fill="#ebedf0" />
<rect x="195" y="0" width="11" height="11" fill="#ebedf0" />
<rect x="195" y="13" width="11" height="11" fill="#ebedf0" />
<rect x="195" y="26" width="11" height="11" fill="#ebedf0" />
<rect x="195" y="39" width="11" height="11" fill="#ebedf0" />
<rect x="195" y="52" width="11" height="11" fill="#ebedf0" />
<rect x="195" y="65" width="11" height="11" fill="#ebedf0" />
<rect x="195" y="78" width="11" height="11" fill="#ebedf0" />
<rect x="208" y="0" width="11" height="11" fill="#ebedf0" />
<rect x="208" y="13" width="11" height="11" fill="#ebedf0" />
<rect x="208" y="26" width="11" height="11" fill="#ebedf0" />
<rect x="208" y="39" width="11" height="11" fill="#ebedf0" />
<rect x="208" y="52" width="11" height="11" fill="#ebedf0" />
<rect x="208" y="65" width="11" height="11" fill="#ebedf0" />
<rect x="208" y="78" width="11" height="11" fill="#ebedf0" />
<rect x="221" y="0" width="11" height="11" fill="#ebedf0" />
<rect x="221" y="13" width="11" height="11" fill="#ebedf0" />
<rect x="221" y="26" width="11" height="11" fill="#ebedf0" />
<rect x="221" y="39" width="11" height="11" fill="#ebedf0" />
<rect x="221" y="52" width="11" height="11" fill="#ebedf0" />
<rect x="221" y="65" width="11" height="11" fill="#ebedf0" />
<rect x="221" y="78" width="11" height="11" fill="#7bc96f" />
<rect x="234" y="0" width="11" height="11" fill="#239a3b" />
<rect x="234" y="13" width="11" height="11" fill="#c6e48b" />
<rect x="234" y="26" width="11" height="11" fill="#ebedf0" />
<rect x="234" y="39" width="11" height="11" fill="#ebedf0" />
<rect x="234" y="52" width="11" height="11" fill="#ebedf0" />
<rect x="234" y="65" width="11" height="11" fill="#196127" />
<rect x="234" y="78" width="11" height="11" fill="#ebedf0" />
<rect x="247" y="0" width="11" height="11" fill="#ebedf0" />
<rect x="247" y="13" width="11" height="11" fill="#ebedf0" />
<rect x="247" y="26" width="11" height="11" fill="#ebedf0" />
<rect x="247" y="39" width="11" height="11" fill="#ebedf0" />
<rect x="247" y="52" width="11" height="11" fill="#ebedf0" />
<rect x="247" y="65" width="11" height="11" fill="#ebedf0" />
<rect x="247" y="78" width="11" height="11" fill="#ebedf0" />
<rect x="260" y="0" width="11" height="11" fill="#ebedf0" />
<rect x="260" y="13" width="11" height="11" fill="#ebedf0" />
<rect x="260" y="26" width="11" height="11" fill="#ebedf0" />
<rect x="260" y="39" width="11" height="11" fill="#ebedf0" />
<rect x="260" y="52" width="11" height="11" fill="#ebedf0" />
<rect x="260" y="65" width="11" height="11" fill="#ebedf0" />
<rect x="260" y="78" width="11" height="11" fill="#ebedf0" />
<rect x="273" y="0" width="11" height="11" fill="#ebedf0" />
<rect x="273" y="13" width="11" height="11" fill="#ebedf0" />
<rect x="273" y="26" width="11" height="11" fill="#ebedf0" />
<rect x="273" y="39" width="11" height="11" fill="#196127" />
<rect x="273" y="52" width="11" height="11" fill="#196127" />
<rect x="273" y="65" width="11" height="11" fill="#c6e48b" />
<rect x="273" y="78" width="11" height="11" fill="#ebedf0" />
<rect x="286" y="0" width="11" height="11" fill="#c6e48b" />
<rect x="286" y="13" width="11" height="11" fill="#ebedf0" />
<rect x="286" y="26" width="11" height="11" fill="#ebedf0" />
<rect x="286" y="39" width="11" height="11" fill="#ebedf0" />
<rect x="286" y="52" width="11" height="11" fill="#ebedf0" />
<rect x="286" y="65" width="11" height="11" fill="#ebedf0" />
<rect x="286" y="78" width="11" height="11" fill="#ebedf0" />
<rect x="299" y="0" width="11" height="11" fill="#ebedf0" />
<rect x="299" y="13" width="11" height="11" fill="#ebedf0" />
<rect x="299" y="26" width="11" height="11" fill="#ebedf0" />
<rect x="299" y="39" width="11" height="11" fill="#ebedf0" />
<rect x="299" y="52" width="11" height="11" fill="#196127" />
<rect x="299" y="65" width="11" height="11" fill="#196127" />
<rect x="299" y="78" width="11" height="11" fill="#7bc96f" />
<rect x="312" y="0" width="11" height="11" fill="#ebedf0" />
<rect x="312" y="13" width="11" height="11" fill="#ebedf0" />
<rect x="312" y="26" width="11" height="11" fill="#ebedf0" />
<rect x="312" y="39" width="11" height="11" fill="#239a3b" />
<rect x="312" y="52" width="11" height="11" fill="#ebedf0" />
<rect x="312" y="65" width="11" height="11" fill="#ebedf0" />
<rect x="312" y="78" width="11" height="11" fill="#ebedf0" />
<rect x="325" y="0" width="11" height="11" fill="#ebedf0" />
<rect x="325" y="13" width="11" height="11" fill="#ebedf0" />
<rect x="325" y="26" width="11" height="11" fill="#ebedf0" />
<rect x="325" y="39" width="11" height="11" fill="#ebedf0" />
<rect x="325" y="52" width="11" height="11" fill="#ebedf0" />
<rect x="325" y="65" width="11" height="11" fill="#ebedf0" />
<rect x="325" y="78" width="11" height="11" fill="#ebedf0" />
<rect x="338" y="0" width="11" height="11" fill="#ebedf0" />
<rect x="338" y="13" width="11" height="11" fill="#ebedf0" />
<rect x="338" y="26" width="11" height="11" fill="#ebedf0" />
<rect x="338" y="39" width="11" height="11" fill="#ebedf0" />
<rect x="338" y="52" width="11" height="11" fill="#ebedf0" />
<rect x="338" y="65" width="11" height="11" fill="#ebedf0" />
<rect x="338" y="78" width="11" height="11" fill="#ebedf0" />
<rect x="351" y="0" width="11" height="11" fill="#ebedf0" />
<rect x="351" y="13" width="11" height="11" fill="#ebedf0" />
<rect x="351" y="26" width="11" height="11" fill="#ebedf0" />
<rect x="351" y="39" width="11" height="11" fill="#ebedf0" />
<rect x="351" y="52" width="11" height="11" fill="#ebedf0" />
<rect x="351" y="65" width="11" height="11" fill="#ebedf0" />
<rect x="351" y="78" width="11" height="11" fill="#ebedf0" />
<rect x="364" y="0" width="11" height="11" fill="#ebedf0" />
<rect x="364" y="13" width="11" height="11" fill="#ebedf0" />
<rect x="364" y="26" width="11" height="11" fill="#ebedf0" />
<rect x="364" y="39" width="11" height="11" fill="#ebedf0" />
<rect x="364" y="52" width="11" height="11" fill="#ebedf0" />
<rect x="364" y="65" width="11" height="11" fill="#ebedf0" />
<rect x="364" y="78" width="11" height="11" fill="#ebedf0" />
<rect x="377" y="0" width="11" height="11" fill="#ebedf0" />
<rect x="377" y="13" width="11" height="11" fill="#ebedf0" />
<rect x="377" y="26" width="11" height="11" fill="#ebedf0" />
<rect x="377" y="39" width="11" height="11" fill="#ebedf0" />
<rect x="377" y="52" width="11" height="11" fill="#ebedf0" />
<rect x="377" y="65" width="11" height="11" fill="#ebedf0" />
<rect x="377" y="78" width="11" height="11" fill="#ebedf0" />
<rect x="390" y="0" width="11" height="11" fill="#ebedf0" />
<rect x="390" y="13" width="11" height="11" fill="#ebedf0" />
<rect x="390" y="26" width="11" height="11" fill="#ebedf0" />
<rect x="390" y="39" width="11" height="11" fill="#ebedf0" />
<rect x="390" y="52" width="11" height="11" fill="#ebedf0" />
<rect x="390" y="65" width="11" height="11" fill="#ebedf0" />
<rect x="390" y="78" width="11" height="11" fill="#ebedf0" />
<rect x="403" y="0" width="11" height="11" fill="#ebedf0" />
<rect x="403" y="13" width="11" height="11" fill="#ebedf0" />
<rect x="403" y="26" width="11" height="11" fill="#ebedf0" />
<rect x="403" y="39" width="11" height="11" fill="#ebedf0" />
<rect x="403" y="52" width="11" height="11" fill="#ebedf0" />
<rect x="403" y="65" width="11" height="11" fill="#ebedf0" />
<rect x="403" y="78" width="11" height="11" fill="#ebedf0" />
<rect x="416" y="0" width="11" height="11" fill="#ebedf0" />
<rect x="416" y="13" width="11" height="11" fill="#ebedf0" />
<rect x="416" y="26" width="11" height="11" fill="#ebedf0" />
<rect x="416" y="39" width="11" height="11" fill="#ebedf0" />
<rect x="416" y="52" width="11" height="11" fill="#7bc96f" />
<rect x="416" y="65" width="11" height="11" fill="#7bc96f" />
<rect x="416" y="78" width="11" height="11" fill="#c6e48b" />
<rect x="429" y="0" width="11" height="11" fill="#239a3b" />
<rect x="429" y="13" width="11" height="11" fill="#c6e48b" />
<rect x="429" y="26" width="11" height="11" fill="#196127" />
<rect x="429" y="39" width="11" height="11" fill="#c6e48b" />
<rect x="429" y="52" width="11" height="11" fill="#ebedf0" />
<rect x="429" y="65" width="11" height="11" fill="#ebedf0" />
<rect x="429" y="78" width="11" height="11" fill="#ebedf0" />
<rect x="442" y="0" width="11" height="11" fill="#ebedf0" />
<rect x="442" y="13" width="11" height="11" fill="#ebedf0" />
<rect x="442" y="26" width="11" height="11" fill="#ebedf0" />
<rect x="442" y="39" width="11" height="11" fill="#ebedf0" />
<rect x="442" y="52" width="11" height="11" fill="#ebedf0" />
<rect x="442" y="65" width="11" height="11" fill="#ebedf0" />
<rect x="442" y="78" width="11" height="11" fill="#ebedf0" />
<rect x="455" y="0" width="11" height="11" fill="#ebedf0" />
<rect x="455" y="13" width="11" height="11" fill="#7bc96f" />
<rect x="455" y="26" width="11" height="11" fill="#ebedf0" />
<rect x="455" y="39" width="11" height="11" fill="#ebedf0" />
<rect x="455" y="52" width="11" height="11" fill="#ebedf0" />
<rect x="455" y="65" width="11" height="11" fill="#ebedf0" />
<rect x="455" y="78" width="11" height="11" fill="#ebedf0" />
<rect x="468" y="0" width="11" height="11" fill="#ebedf0" />
<rect x="468" y="13" width="11" height="11" fill="#7bc96f" />
<rect x="468" y="26" width="11" height="11" fill="#ebedf0" />
<rect x="468" y="39" width="11" height="11" fill="#ebedf0" />
<rect x="468" y="52" width="11" height="11" fill="#ebedf0" />
<rect x="468" y="65" width="11" height="11" fill="#ebedf0" />
<rect x="468" y="78" width="11" height="11" fill="#ebedf0" />
<rect x="481" y="0" width="11" height="11" fill="#ebedf0" />
<rect x="481" y="13" width="11" height="11" fill="#ebedf0" />
<rect x="481" y="26" width="11" height="11" fill="#ebedf0" />
<rect x="481" y="39" width="11" height="11" fill="#ebedf0" />
<rect x="481" y="52" width="11" height="11" fill="#ebedf0" />
<rect x="481" y="65" width="11" height="11" fill="#ebedf0" />
<rect x="481" y="78" width="11" height="11" fill="#ebedf0" />
<rect x="494" y="0" width="11" height="11" fill="#ebedf0" />
<rect x="494" y="13" width="11" height="11" fill="#ebedf0" />
<rect x="494" y="26" width="11" height="11" fill="#ebedf0" />
<rect x="494" y="39" width="11" height="11" fill="#ebedf0" />
<rect x="494" y="52" width="11" height="11" fill="#ebedf0" />
<rect x="494" y="65" width="11" height="11" fill="#ebedf0" />
<rect x="494" y="78" width="11" height="11" fill="#ebedf0" />
<rect x="507" y="0" width="11" height="11" fill="#ebedf0" />
<rect x="507" y="13" width="11" height="11" fill="#ebedf0" />
<rect x="507" y="26" width="11" height="11" fill="#ebedf0" />
<rect x="507" y="39" width="11" height="11" fill="#ebedf0" />
<rect x="507" y="52" width="11" height="11" fill="#ebedf0" />
<rect x="507" y="65" width="11" height="11" fill="#ebedf0" />
<rect x="507" y="78" width="11" height="11" fill="#ebedf0" />
<rect x="520" y="0" width="11" height="11" fill="#ebedf0" />
<rect x="520" y="13" width="11" height="11" fill="#ebedf0" />
<rect x="520" y="26" width="11" height="11" fill="#ebedf0" />
<rect x="520" y="39" width="11" height="11" fill="#ebedf0" />
<rect x="520" y="52" width="11" height="11" fill="#ebedf0" />
<rect x="520" y="65" width="11" height="11" fill="#ebedf0" />
<rect x="520" y="78" width="11" height="11" fill="#ebedf0" />
<rect x="533" y="0" width="11" height="11" fill="#ebedf0" />
<rect x="533" y="13" width="11" height="11" fill="#ebedf0" />
<rect x="533" y="26" width="11" height="11" fill="#ebedf0" />
<rect x="533" y="39" width="11" height="11" fill="#ebedf0" />
<rect x="533" y="52" width="11" height="11" fill="#ebedf0" />
<rect x="533" y="65" width="11" height="11" fill="#ebedf0" />
<rect x="533" y="78" width="11" height="11" fill="#ebedf0" />
<rect x="546" y="0" width="11" height="11" fill="#ebedf0" />
<rect x="546" y="13" width="11" height="11" fill="#ebedf0" />
<rect x="546" y="26" width="11" height="11" fill="#ebedf0" />
<rect x="546" y="39" width="11" height="11" fill="#ebedf0" />
<rect x="546" y="52" width="11" height="11" fill="#ebedf0" />
<rect x="546" y="65" width="11" height="11" fill="#ebedf0" />
<rect x="546" y="78" width="11" height="11" fill="#ebedf0" />
<rect x="559" y="0" width="11" height="11" fill="#ebedf0" />
<rect x="559" y="13" width="11" height="11" fill="#ebedf0" />
<rect x="559" y="26" width="11" height="11" fill="#ebedf0" />
<rect x="559" y="39" width="11" height="11" fill="#ebedf0" />
<rect x="559" y="52" width="11" height="11" fill="#ebedf0" />
<rect x="559" y="65" width="11" height="11" fill="#ebedf0" />
<rect x="559" y="78" width="11" height="11" fill="#ebedf0" />
<rect x="572" y="0" width="11" height="11" fill="#ebedf0" />
<rect x="572" y="13" width="11" height="11" fill="#ebedf0" />
<rect x="572" y="26" width="11" height="11" fill="#ebedf0" />
<rect x="572" y="39" width="11" height="11" fill="#ebedf0" />
<rect x="572" y="52" width="11" height="11" fill="#ebedf0" />
<rect x="572" y="65" width="11" height="11" fill="#ebedf0" />
<rect x="572" y="78" width="11" height="11" fill="#ebedf0" />
<rect x="585" y="0" width="11" height="11" fill="#ebedf0" />
<rect x="585" y="13" width="11" height="11" fill="#ebedf0" />
<rect x="585" y="26" width="11" height="11" fill="#ebedf0" />
<rect x="585" y="39" width="11" height="11" fill="#ebedf0" />
<rect x="585" y="52" width="11" height="11" fill="#ebedf0" />
<rect x="585" y="65" width="11" height="11" fill="#ebedf0" />
<rect x="585" y="78" width="11" height="11" fill="#ebedf0" />
<rect x="598" y="0" width="11" height="11" fill="#ebedf0" />
<rect x="598" y="13" width="11" height="11" fill="#ebedf0" />
<rect x="598" y="26" width="11" height="11" fill="#ebedf0" />
<rect x="598" y="39" width="11" height="11" fill="#ebedf0" />
<rect x="598" y="52" width="11" height="11" fill="#ebedf0" />
<rect x="598" y="65" width="11" height="11" fill="#ebedf0" />
<rect x="598" y="78" width="11" height="11" fill="#ebedf0" />
<rect x="611" y="0" width="11" height="11" fill="#c6e48b" />
<rect x="611" y="13" width="11" height="11" fill="#ebedf0" />
<rect x="611" y="26" width="11" height="11" fill="#196127" />
<rect x="611" y="39" width="11" height="11" fill="#196127" />
<rect x="611" y="52" width="11" height="11" fill="#196127" />
<rect x="611" y="65" width="11" height="11" fill="#ebedf0" />
<rect x="611" y="78" width="11" height="11" fill="#c6e48b" />
<rect x="624" y="0" width="11" height="11" fill="#ebedf0" />
<rect x="624" y="13" width="11" height="11" fill="#ebedf0" />
<rect x="624" y="26" width="11" height="11" fill="#ebedf0" />
<rect x="624" y="39" width="11" height="11" fill="#ebedf0" />
<rect x="624" y="52" width="11" height="11" fill="#ebedf0" />
<rect x="624" y="65" width="11" height="11" fill="#ebedf0" />
<rect x="624" y="78" width="11" height="11" fill="#ebedf0" />
<rect x="637" y="0" width="11" height="11" fill="#ebedf0" />
<rect x="637" y="13" width="11" height="11" fill="#ebedf0" />
<rect x="637" y="26" width="11" height="11" fill="#ebedf0" />
<rect x="637" y="39" width="11" height="11" fill="#ebedf0" />
<rect x="637" y="52" width="11" height="11" fill="#ebedf0" />
<rect x="637" y="65" width="11" height="11" fill="#ebedf0" />
<rect x="637" y="78" width="11" height="11" fill="#ebedf0" />
<rect x="650" y="0" width="11" height="11" fill="#ebedf0" />
<rect x="650" y="13" width="11" height="11" fill="#ebedf0" />
<rect x="650" y="26" width="11" height="11" fill="#ebedf0" />
<rect x="650" y="39" width="11" height="11" fill="#ebedf0" />
<rect x="650" y="52" width="11" height="11" fill="#ebedf0" />
<rect x="650" y="65" width="11" height="11" fill="#ebedf0" />
<rect x="650" y="78" width="11" height="11" fill="#ebedf0" />
<rect x="663" y="0" width="11" height="11" fill="#ebedf0" />
<rect x="663" y="13" width="11" height="11" fill="#ebedf0" />
<rect x="663" y="26" width="11" height="11" fill="#ebedf0" />
<rect x="663" y="39" width="11" height="11" fill="#ebedf0" />
<rect x="663" y="52" width="11" height="11" fill="#ebedf0" />
<rect x="663" y="65" width="11" height="11" fill="#ebedf0" />
<rect x="663" y="78" width="11" height="11" fill="#ebedf0" />
<rect x="676" y="0" width="11" height="11" fill="#ebedf0" />
</g></svg>