<svg width="900" height="140" viewBox="0 0 900 140" xmlns="http://www.w3.org/2000/svg">
<style>.small { font: 8px sans-serif; fill: #7A7A7A; }</style>
<rect width="100%" height="100%" fill="black" />
<g transform="translate(20, 15)">
<text class="small" x="-10" y="8" text-anchor="middle">Sun</text>
<text class="small" x="-10" y="21" text-anchor="middle">Mon</text>
<text class="small" x="-10" y="34" text-anchor="middle">Tue</text>
<text class="small" x="-10" y="47" text-anchor="middle">Wed</text>
<text class="small" x="-10" y="60" text-anchor="middle">Thu</text>
<text class="small" x="-10" y="73" text-anchor="middle">Fri</text>
<text class="small" x="-10" y="86" text-anchor="middle">Sat</text>
<g transform="translate(0, -10)">
<text class="small" x="39" y="10">Jul</text>
<text class="small" x="104" y="10">Aug</text>
<text class="small" x="156" y="10">Sep</text>
<text class="small" x="221" y="10">Oct</text>
<text class="small" x="273" y="10">Nov</text>
<text class="small" x="325" y="10">Dec</text>
<text class="small" x="390" y="10">Jan</text>
<text class="small" x="442" y="10">Feb</text>
<text class="small" x="494" y="10">Mar</text>
<text class="small" x="559" y="10">Apr</text>
<text class="small" x="611" y="10">May</text>
<text class="small" x="663" y="10">Jun</text>
</g>
<rect x="5" y="31" width="12" height="12" fill="#ebedf0" />
<rect x="5" y="44" width="12" height="12" fill="#ebedf0" />
<rect x="5" y="57" width="12" height="12" fill="#ebedf0" />
<rect x="5" y="70" width="12" height="12" fill="#ebedf0" />
<rect x="5" y="83" width="12" height="12" fill="#ebedf0" />
<rect x="18" y="5" width="12" height="12" fill="#ebedf0" />
<rect x="18" y="18" width="12" height="12" fill="#ebedf0" />
<rect x="18" y="31" width="12" height="12" fill="#ebedf0" />
<rect x="18" y="44" width="12" height="12" fill="#ebedf0" />
<rect x="18" y="57" width="12" height="12" fill="#ebedf0" />
<rect x="18" y="70" width="12" height="12" fill="#ebedf0" />
<rect x="18" y="83" width="12" height="12" fill="#ebedf0" />
<rect x="31" y="5" width="12" height="12" fill="#ebedf0" />
<rect x="31" y="18" width="12" height="12" fill="#ebedf0" />
<rect x="31" y="31" width="12" height="12" fill="#ebedf0" />
<rect x="31" y="44" width="12" height="12" fill="#ebedf0" />
<rect x="31" y="57" width="12" height="12" fill="#ebedf0" />
<rect x="31" y="70" width="12" height="12" fill="#ebedf0" />
<rect x="31" y="83" width="12" height="12" fill="#ebedf0" />
<rect x="44" y="5" width="12" height="12" fill="#ebedf0" />
<rect x="44" y="18" width="12" height="12" fill="#ebedf0" />
<rect x="44" y="31" width="12" height="12" fill="#ebedf0" />
<rect x="44" y="44" width="12" height="12" fill="#ebedf0" />
<rect x="44" y="57" width="12" height="12" fill="#ebedf0" />
<rect x="44" y="70" width="12" height="12" fill="#ebedf0" />
<rect x="44" y="83" width="12" height="12" fill="#ebedf0" />
<rect x="57" y="5" width="12" height="12" fill="#ebedf0" />
<rect x="57" y="18" width="12" height="12" fill="#ebedf0" />
<rect x="57" y="31" width="12" height="12" fill="#ebedf0" />
<rect x="57" y="44" width="12" height="12" fill="#ebedf0" />
<rect x="57" y="57" width="12" height="12" fill="#ebedf0" />
<rect x="57" y="70" width="12" height="12" fill="#ebedf0" />
<rect x="57" y="83" width="12" height="12" fill="#ebedf0" />
<rect x="70" y="5" width="12" height="12" fill="#ebedf0" />
<rect x="70" y="18" width="12" height="12" fill="#ebedf0" />
<rect x="70" y="31" width="12" height="12" fill="#ebedf0" />
<rect x="70" y="44" width="12" height="12" fill="#ebedf0" />
<rect x="70" y="57" width="12" height="12" fill="#ebedf0" />
<rect x="70" y="70" width="12" height="12" fill="#ebedf0" />
<rect x="70" y="83" width="12" height="12" fill="#ebedf0" />
<rect x="83" y="5" width="12" height="12" fill="#ebedf0" />
<rect x="83" y="18" width="12" height="12" fill="#ebedf0" />
<rect x="83" y="31" width="12" height="12" fill="#ebedf0" />
<rect x="83" y="44" width="12" height="12" fill="#ebedf0" />
<rect x="83" y="57" width="12" height="12" fill="#ebedf0" />
<rect x="83" y="70" width="12" height="12" fill="#ebedf0" />
<rect x="83" y="83" width="12" height="12" fill="#ebedf0" />
<rect x="96" y="5" width="12" height="12" fill="#ebedf0" />
<rect x="96" y="18" width="12" height="12" fill="#ebedf0" />
<rect x="96" y="31" width="12" height="12" fill="#ebedf0" />
<rect x="96" y="44" width="12" height="12" fill="#ebedf0" />
<rect x="96" y="57" width="12" height="12" fill="#ebedf0" />
<rect x="96" y="70" width="12" height="12" fill="#ebedf0" />
<rect x="96" y="83" width="12" height="12" fill="#ebedf0" />
<rect x="109" y="5" width="12" height="12" fill="#ebedf0" />
<rect x="109" y="18" width="12" height="12" fill="#ebedf0" />
<rect x="109" y="31" width="12" height="12" fill="#ebedf0" />
<rect x="109" y="44" width="12" height="12" fill="#ebedf0" />
<rect x="109" y="57" width="12" height="12" fill="#ebedf0" />
<rect x="109" y="70" width="12" height="12" fill="#ebedf0" />
<rect x="109" y="83" width="12" height="12" fill="#ebedf0" />
<rect x="122" y="5" width="12" height="12" fill="#ebedf0" />
<rect x="122" y="18" width="12" height="12" fill="#ebedf0" />
<rect x="122" y="31" width="12" height="12" fill="#ebedf0" />
<rect x="122" y="44" width="12" height="12" fill="#ebedf0" />
<rect x="122" y="57" width="12" height="12" fill="#ebedf0" />
<rect x="122" y="70" width="12" height="12" fill="#ebedf0" />
<rect x="122" y="83" width="12" height="12" fill="#ebedf0" />
<rect x="135" y="5" width="12" height="12" fill="#ebedf0" />
<rect x="135" y="18" width="12" height="12" fill="#ebedf0" />
<rect x="135" y="31" width="12" height="12" fill="#ebedf0" />
<rect x="135" y="44" width="12" height="12" fill="#c6e48b" />
<rect x="135" y="57" width="12" height="12" fill="#ebedf0" />
<rect x="135" y="70" width="12" height="12" fill="#ebedf0" />
<rect x="135" y="83" width="12" height="12" fill="#ebedf0" />
<rect x="148" y="5" width="12" height="12" fill="#ebedf0" />
<rect x="148" y="18" width="12" height="12" fill="#ebedf0" />
<rect x="148" y="31" width="12" height="12" fill="#ebedf0" />
<rect x="148" y="44" width="12" height="12" fill="#ebedf0" />
<rect x="148" y="57" width="12" height="12" fill="#ebedf0" />
<rect x="148" y="70" width="12" height="12" fill="#ebedf0" />
<rect x="148" y="83" width="12" height="12" fill="#ebedf0" />
<rect x="161" y="5" width="12" height="12" fill="#ebedf0" />
<rect x="161" y="18" width="12" height="12" fill="#ebedf0" />
<rect x="161" y="31" width="12" height="12" fill="#ebedf0" />
<rect x="161" y="44" width="12" height="12" fill="#ebedf0" />
<rect x="161" y="57" width="12" height="12" fill="#ebedf0" />
<rect x="161" y="70" width="12" height="12" fill="#ebedf0" />
<rect x="161" y="83" width="12" height="12" fill="#ebedf0" />
<rect x="174" y="5" width="12" height="12" fill="#ebedf0" />
<rect x="174" y="18" width="12" height="12" fill="#ebedf0" />
<rect x="174" y="31" width="12" height="12" fill="#ebedf0" />
<rect x="174" y="44" width="12" height="12" fill="#ebedf0" />
<rect x="174" y="57" width="12" height="12" fill="#ebedf0" />
<rect x="174" y="70" width="12" height="12" fill="#ebedf0" />
<rect x="174" y="83" width="12" height="12" fill="#ebedf0" />
<rect x="187" y="5" width="12" height="12" fill="#ebedf0" />
<rect x="187" y="18" width="12" height="12" fill="#ebedf0" />
<rect x="187" y="31" width="12" height="12" fill="#ebedf0" />
<rect x="187" y="44" width="12" height="12" fill="#ebedf0" />
<rect x="187" y="57" width="12" height="12" fill="#ebedf0" />
<rect x="187" y="70" width="12" height="12" fill="#ebedf0" />
<rect x="187" y="83" width="12" height="12" fill="#ebedf0" />
<rect x="200" y="5" width="12" height="12" fill="#ebedf0" />
<rect x="200" y="18" width="12" height="12" fill="#ebedf0" />
<rect x="200" y="31" width="12" height="12" fill="#ebedf0" />
<rect x="200" y="44" width="12" height="12" fill="#ebedf0" />
<rect x="200" y="57" width="12" height="12" fill="#ebedf0" />
<rect x="200" y="70" width="12" height="12" fill="#ebedf0" />
<rect x="200" y="83" width="12" height="12" fill="#ebedf0" />
<rect x="213" y="5" width="12" height="12" fill="#ebedf0" />
<rect x="213" y="18" width="12" height="12" fill="#ebedf0" />
<rect x="213" y="31" width="12" height="12" fill="#ebedf0" />
<rect x="213" y="44" width="12" height="12" fill="#ebedf0" />
<rect x="213" y="57" width="12" height="12" fill="#ebedf0" />
<rect x="213" y="70" width="12" height="12" fill="#ebedf0" />
<rect x="213" y="83" width="12" height="12" fill="#ebedf0" />
<rect x="226" y="5" width="12" height="12" fill="#ebedf0" />
<rect x="226" y="18" width="12" height="12" fill="#ebedf0" />
<rect x="226" y="31" width="12" height="12" fill="#ebedf0" />
<rect x="226" y="44" width="12" height="12" fill="#ebedf0" />
<rect x="226" y="57" width="12" height="12" fill="#ebedf0" />
<rect x="226" y="70" width="12" height="12" fill="#ebedf0" />
<rect x="226" y="83" width="12" height="12" fill="#ebedf0" />
<rect x="239" y="5" width="12" height="12" fill="#ebedf0" />
<rect x="239" y="18" width="12" height="12" fill="#ebedf0" />
<rect x="239" y="31" width="12" height="12" fill="#ebedf0" />
<rect x="239" y="44" width="12" height="12" fill="#ebedf0" />
<rect x="239" y="57" width="12" height="12" fill="#ebedf0" />
<rect x="239" y="70" width="12" height="12" fill="#ebedf0" />
<rect x="239" y="83" width="12" height="12" fill="#ebedf0" />
<rect x="252" y="5" width="12" height="12" fill="#ebedf0" />
<rect x="252" y="18" width="12" height="12" fill="#ebedf0" />
<rect x="252" y="31" width="12" height="12" fill="#ebedf0" />
<rect x="252" y="44" width="12" height="12" fill="#ebedf0" />
<rect x="252" y="57" width="12" height="12" fill="#ebedf0" />
<rect x="252" y="70" width="12" height="12" fill="#ebedf0" />
<rect x="252" y="83" width="12" height="12" fill="#ebedf0" />
<rect x="265" y="5" width="12" height="12" fill="#ebedf0" />
<rect x="265" y="18" width="12" height="12" fill="#ebedf0" />
<rect x="265" y="31" width="12" height="12" fill="#ebedf0" />
<rect x="265" y="44" width="12" height="12" fill="#ebedf0" />
<rect x="265" y="57" width="12" height="12" fill="#ebedf0" />
<rect x="265" y="70" width="12" height="12" fill="#ebedf0" />
<rect x="265" y="83" width="12" height="12" fill="#ebedf0" />
<rect x="278" y="5" width="12" height="12" fill="#ebedf0" />
<rect x="278" y="18" width="12" height="12" fill="#ebedf0" />
<rect x="278" y="31" width="12" height="12" fill="#ebedf0" />
<rect x="278" y="44" width="12" height="12" fill="#ebedf0" />
<rect x="278" y="57" width="12" height="12" fill="#ebedf0" />
<rect x="278" y="70" width="12" height="12" fill="#ebedf0" />
<rect x="278" y="83" width="12" height="12" fill="#ebedf0" />
<rect x="291" y="5" width="12" height="12" fill="#ebedf0" />
<rect x="291" y="18" width="12" height="12" fill="#ebedf0" />
<rect x="291" y="31" width="12" height="12" fill="#ebedf0" />
<rect x="291" y="44" width="12" height="12" fill="#ebedf0" />
<rect x="291" y="57" width="12" height="12" fill="#ebedf0" />
<rect x="291" y="70" width="12" height="12" fill="#ebedf0" />
<rect x="291" y="83" width="12" height="12" fill="#ebedf0" />
<rect x="304" y="5" width="12" height="12" fill="#ebedf0" />
<rect x="304" y="18" width="12" height="12" fill="#ebedf0" />
<rect x="304" y="31" width="12" height="12" fill="#ebedf0" />
<rect x="304" y="44" width="12" height="12" fill="#ebedf0" />
<rect x="304" y="57" width="12" height="12" fill="#ebedf0" />
<rect x="304" y="70" width="12" height="12" fill="#ebedf0" />
<rect x="304" y="83" width="12" height="12" fill="#ebedf0" />
<rect x="317" y="5" width="12" height="12" fill="#ebedf0" />
<rect x="317" y="18" width="12" height="12" fill="#ebedf0" />
<rect x="317" y="31" width="12" height="12" fill="#ebedf0" />
<rect x="317" y="44" width="12" height="12" fill="#ebedf0" />
<rect x="317" y="57" width="12" height="12" fill="#ebedf0" />
<rect x="317" y="70" width="12" height="12" fill="#ebedf0" />
<rect x="317" y="83" width="12" height="12" fill="#ebedf0" />
<rect x="330" y="5" width="12" height="12" fill="#ebedf0" />
<rect x="330" y="18" width="12" height="12" fill="#ebedf0" />
<rect x="330" y="31" width="12" height="12" fill="#ebedf0" />
<rect x="330" y="44" width="12" height="12" fill="#ebedf0" />
<rect x="330" y="57" width="12" height="12" fill="#ebedf0" />
<rect x="330" y="70" width="12" height="12" fill="#ebedf0" />
<rect x="330" y="83" width="12" height="12" fill="#ebedf0" />
<rect x="343" y="5" width="12" height="12" fill="#ebedf0" />
<rect x="343" y="18" width="12" height="12" fill="#ebedf0" />
<rect x="343" y="31" width="12" height="12" fill="#ebedf0" />
<rect x="343" y="44" width="12" height="12" fill="#ebedf0" />
<rect x="343" y="57" width="12" height="12" fill="#ebedf0" />
<rect x="343" y="70" width="12" height="12" fill="#ebedf0" />
<rect x="343" y="83" width="12" height="12" fill="#ebedf0" />
<rect x="356" y="5" width="12" height="12" fill="#ebedf0" />
<rect x="356" y="18" width="12" height="12" fill="#ebedf0" />
<rect x="356" y="31" width="12" height="12" fill="#ebedf0" />
<rect x="356" y="44" width="12" height="12" fill="#ebedf0" />
<rect x="356" y="57" width="12" height="12" fill="#ebedf0" />
<rect x="356" y="70" width="12" height="12" fill="#ebedf0" />
<rect x="356" y="83" width="12" height="12" fill="#ebedf0" />
<rect x="369" y="5" width="12" height="12" fill="#ebedf0" />
<rect x="369" y="18" width="12" height="12" fill="#ebedf0" />
<rect x="369" y="31" width="12" height="12" fill="#ebedf0" />
<rect x="369" y="44" width="12" height="12" fill="#ebedf0" />
<rect x="369" y="57" width="12" height="12" fill="#ebedf0" />
<rect x="369" y="70" width="12" height="12" fill="#ebedf0" />
<rect x="369" y="83" width="12" height="12" fill="#ebedf0" />
<rect x="382" y="5" width="12" height="12" fill="#ebedf0" />
<rect x="382" y="18" width="12" height="12" fill="#ebedf0" />
<rect x="382" y="31" width="12" height="12" fill="#ebedf0" />
<rect x="382" y="44" width="12" height="12" fill="#ebedf0" />
<rect x="382" y="57" width="12" height="12" fill="#ebedf0" />
<rect x="382" y="70" width="12" height="12" fill="#ebedf0" />
<rect x="382" y="83" width="12" height="12" fill="#ebedf0" />
<rect x="395" y="5" width="12" height="12" fill="#ebedf0" />
<rect x="395" y="18" width="12" height="12" fill="#ebedf0" />
<rect x="395" y="31" width="12" height="12" fill="#ebedf0" />
<rect x="395" y="44" width="12" height="12" fill="#ebedf0" />
<rect x="395" y="57" width="12" height="12" fill="#ebedf0" />
<rect x="395" y="70" width="12" height="12" fill="#ebedf0" />
<rect x="395" y="83" width="12" height="12" fill="#ebedf0" />
<rect x="408" y="5" width="12" height="12" fill="#ebedf0" />
<rect x="408" y="18" width="12" height="12" fill="#ebedf0" />
<rect x="408" y="31" width="12" height="12" fill="#ebedf0" />
<rect x="408" y="44" width="12" height="12" fill="#ebedf0" />
<rect x="408" y="57" width="12" height="12" fill="#ebedf0" />
<rect x="408" y="70" width="12" height="12" fill="#ebedf0" />
<rect x="408" y="83" width="12" height="12" fill="#ebedf0" />
<rect x="421" y="5" width="12" height="12" fill="#ebedf0" />
<rect x="421" y="18" width="12" height="12" fill="#ebedf0" />
<rect x="421" y="31" width="12" height="12" fill="#ebedf0" />
<rect x="421" y="44" width="12" height="12" fill="#ebedf0" />
<rect x="421" y="57" width="12" height="12" fill="#ebedf0" />
<rect x="421" y="70" width="12" height="12" fill="#ebedf0" />
<rect x="421" y="83" width="12" height="12" fill="#ebedf0" />
<rect x="434" y="5" width="12" height="12" fill="#ebedf0" />
<rect x="434" y="18" width="12" height="12" fill="#ebedf0" />
<rect x="434" y="31" width="12" height="12" fill="#c6e48b" />
<rect x="434" y="44" width="12" height="12" fill="#ebedf0" />
<rect x="434" y="57" width="12" height="12" fill="#ebedf0" />
<rect x="434" y="70" width="12" height="12" fill="#ebedf0" />
<rect x="434" y="83" width="12" height="12" fill="#ebedf0" />
<rect x="447" y="5" width="12" height="12" fill="#ebedf0" />
<rect x="447" y="18" width="12" height="12" fill="#ebedf0" />
<rect x="447" y="31" width="12" height="12" fill="#ebedf0" />
<rect x="447" y="44" width="12" height="12" fill="#ebedf0" />
<rect x="447" y="57" width="12" height="12" fill="#ebedf0" />
<rect x="447" y="70" width="12" height="12" fill="#ebedf0" />
<rect x="447" y="83" width="12" height="12" fill="#ebedf0" />
<rect x="460" y="5" width="12" height="12" fill="#ebedf0" />
<rect x="460" y="18" width="12" height="12" fill="#ebedf0" />
<rect x="460" y="31" width="12" height="12" fill="#ebedf0" />
<rect x="460" y="44" width="12" height="12" fill="#ebedf0" />
<rect x="460" y="57" width="12" height="12" fill="#ebedf0" />
<rect x="460" y="70" width="12" height="12" fill="#ebedf0" />
<rect x="460" y="83" width="12" height="12" fill="#ebedf0" />
<rect x="473" y="5" width="12" height="12" fill="#ebedf0" />
<rect x="473" y="18" width="12" height="12" fill="#ebedf0" />
<rect x="473" y="31" width="12" height="12" fill="#ebedf0" />
<rect x="473" y="44" width="12" height="12" fill="#ebedf0" />
<rect x="473" y="57" width="12" height="12" fill="#ebedf0" />
<rect x="473" y="70" width="12" height="12" fill="#7bc96f" />
<rect x="473" y="83" width="12" height="12" fill="#239a3b" />
<rect x="486" y="5" width="12" height="12" fill="#c6e48b" />
<rect x="486" y="18" width="12" height="12" fill="#ebedf0" />
<rect x="486" y="31" width="12" height="12" fill="#ebedf0" />
<rect x="486" y="44" width="12" height="12" fill="#ebedf0" />
<rect x="486" y="57" width="12" height="12" fill="#196127" />
<rect x="486" y="70" width="12" height="12" fill="#ebedf0" />
<rect x="486" y="83" width="12" height="12" fill="#ebedf0" />
<rect x="499" y="5" width="12" height="12" fill="#ebedf0" />
<rect x="499" y="18" width="12" height="12" fill="#ebedf0" />
<rect x="499" y="31" width="12" height="12" fill="#ebedf0" />
<rect x="499" y="44" width="12" height="12" fill="#ebedf0" />
<rect x="499" y="57" width="12" height="12" fill="#ebedf0" />
<rect x="499" y="70" width="12" height="12" fill="#ebedf0" />
<rect x="499" y="83" width="12" height="12" fill="#ebedf0" />
<rect x="512" y="5" width="12" height="12" fill="#ebedf0" />
<rect x="512" y="18" width="12" height="12" fill="#ebedf0" />
<rect x="512" y="31" width="12" height="12" fill="#ebedf0" />
<rect x="512" y="44" width="12" height="12" fill="#ebedf0" />
<rect x="512" y="57" width="12" height="12" fill="#ebedf0" />
<rect x="512" y="70" width="12" height="12" fill="#ebedf0" />
<rect x="512" y="83" width="12" height="12" fill="#ebedf0" />
<rect x="525" y="5" width="12" height="12" fill="#ebedf0" />
<rect x="525" y="18" width="12" height="12" fill="#ebedf0" />
<rect x="525" y="31" width="12" height="12" fill="#196127" />
<rect x="525" y="44" width="12" height="12" fill="#196127" />
<rect x="525" y="57" width="12" height="12" fill="#c6e48b" />
<rect x="525" y="70" width="12" height="12" fill="#ebedf0" />
<rect x="525" y="83" width="12" height="12" fill="#c6e48b" />
<rect x="538" y="5" width="12" height="12" fill="#ebedf0" />
<rect x="538" y="18" width="12" height="12" fill="#ebedf0" />
<rect x="538" y="31" width="12" height="12" fill="#ebedf0" />
<rect x="538" y="44" width="12" height="12" fill="#ebedf0" />
<rect x="538" y="57" width="12" height="12" fill="#ebedf0" />
<rect x="538" y="70" width="12" height="12" fill="#ebedf0" />
<rect x="538" y="83" width="12" height="12" fill="#ebedf0" />
<rect x="551" y="5" width="12" height="12" fill="#ebedf0" />
<rect x="551" y="18" width="12" height="12" fill="#ebedf0" />
<rect x="551" y="31" width="12" height="12" fill="#ebedf0" />
<rect x="551" y="44" width="12" height="12" fill="#196127" />
<rect x="551" y="57" width="12" height="12" fill="#196127" />
<rect x="551" y="70" width="12" height="12" fill="#7bc96f" />
<rect x="551" y="83" width="12" height="12" fill="#ebedf0" />
<rect x="564" y="5" width="12" height="12" fill="#ebedf0" />
<rect x="564" y="18" width="12" height="12" fill="#ebedf0" />
<rect x="564" y="31" width="12" height="12" fill="#239a3b" />
<rect x="564" y="44" width="12" height="12" fill="#ebedf0" />
<rect x="564" y="57" width="12" height="12" fill="#ebedf0" />
<rect x="564" y="70" width="12" height="12" fill="#ebedf0" />
<rect x="564" y="83" width="12" height="12" fill="#ebedf0" />
<rect x="577" y="5" width="12" height="12" fill="#ebedf0" />
<rect x="577" y="18" width="12" height="12" fill="#ebedf0" />
<rect x="577" y="31" width="12" height="12" fill="#ebedf0" />
<rect x="577" y="44" width="12" height="12" fill="#ebedf0" />
<rect x="577" y="57" width="12" height="12" fill="#ebedf0" />
<rect x="577" y="70" width="12" height="12" fill="#ebedf0" />
<rect x="577" y="83" width="12" height="12" fill="#ebedf0" />
<rect x="590" y="5" width="12" height="12" fill="#ebedf0" />
<rect x="590" y="18" width="12" height="12" fill="#ebedf0" />
<rect x="590" y="31" width="12" height="12" fill="#ebedf0" />
<rect x="590" y="44" width="12" height="12" fill="#ebedf0" />
<rect x="590" y="57" width="12" height="12" fill="#ebedf0" />
<rect x="590" y="70" width="12" height="12" fill="#ebedf0" />
<rect x="590" y="83" width="12" height="12" fill="#ebedf0" />
<rect x="603" y="5" width="12" height="12" fill="#ebedf0" />
<rect x="603" y="18" width="12" height="12" fill="#ebedf0" />
<rect x="603" y="31" width="12" height="12" fill="#ebedf0" />
<rect x="603" y="44" width="12" height="12" fill="#ebedf0" />
<rect x="603" y="57" width="12" height="12" fill="#ebedf0" />
<rect x="603" y="70" width="12" height="12" fill="#ebedf0" />
<rect x="603" y="83" width="12" height="12" fill="#ebedf0" />
<rect x="616" y="5" width="12" height="12" fill="#ebedf0" />
<rect x="616" y="18" width="12" height="12" fill="#ebedf0" />
<rect x="616" y="31" width="12" height="12" fill="#ebedf0" />
<rect x="616" y="44" width="12" height="12" fill="#ebedf0" />
<rect x="616" y="57" width="12" height="12" fill="#ebedf0" />
<rect x="616" y="70" width="12" height="12" fill="#ebedf0" />
<rect x="616" y="83" width="12" height="12" fill="#ebedf0" />
<rect x="629" y="5" width="12" height="12" fill="#ebedf0" />
<rect x="629" y="18" width="12" height="12" fill="#ebedf0" />
<rect x="629" y="31" width="12" height="12" fill="#ebedf0" />
<rect x="629" y="44" width="12" height="12" fill="#ebedf0" />
<rect x="629" y="57" width="12" height="12" fill="#ebedf0" />
<rect x="629" y="70" width="12" height="12" fill="#ebedf0" />
<rect x="629" y="83" width="12" height="12" fill="#ebedf0" />
<rect x="642" y="5" width="12" height="12" fill="#ebedf0" />
<rect x="642" y="18" width="12" height="12" fill="#ebedf0" />
<rect x="642" y="31" width="12" height="12" fill="#ebedf0" />
<rect x="642" y="44" width="12" height="12" fill="#ebedf0" />
<rect x="642" y="57" width="12" height="12" fill="#ebedf0" />
<rect x="642" y="70" width="12" height="12" fill="#ebedf0" />
<rect x="642" y="83" width="12" height="12" fill="#ebedf0" />
<rect x="655" y="5" width="12" height="12" fill="#ebedf0" />
<rect x="655" y="18" width="12" height="12" fill="#ebedf0" />
<rect x="655" y="31" width="12" height="12" fill="#ebedf0" />
<rect x="655" y="44" width="12" height="12" fill="#ebedf0" />
<rect x="655" y="57" width="12" height="12" fill="#ebedf0" />
<rect x="655" y="70" width="12" height="12" fill="#ebedf0" />
<rect x="655" y="83" width="12" height="12" fill="#ebedf0" />
<rect x="668" y="5" width="12" height="12" fill="#ebedf0" />
<rect x="668" y="18" width="12" height="12" fill="#ebedf0" />
<rect x="668" y="31" width="12" height="12" fill="#ebedf0" />
<rect x="668" y="44" width="12" height="12" fill="#7bc96f" />
<rect x="668" y="57" width="12" height="12" fill="#7bc96f" />
<rect x="668" y="70" width="12" height="12" fill="#c6e48b" />
<rect x="668" y="83" width="12" height="12" fill="#239a3b" />
<rect x="681" y="5" width="12" height="12" fill="#c6e48b" />
<rect x="681" y="18" width="12" height="12" fill="#196127" />
<rect x="681" y="31" width="12" height="12" fill="#c6e48b" />
</g></svg>